M48
;Layer_Color=9474304
;FILE_FORMAT=4:4
METRIC,LZ
;TYPE=PLATED
T01F00S00C0.3000
T03F00S00C1.0000
;TYPE=NON_PLATED
T04F00S00C0.6500
T05F00S00C2.7500
%
T01
X0Y-0025
X0001524Y-0022098
X0000762Y-0019558
X-0000254Y-0016256
X0000427Y-0014986
X0001332Y-001238
X00013319Y-001048
X0Y-001
X00025Y-00075
X0005842Y-0006604
X0005Y-0005
X001
X00075Y-00075
X001Y-001
X0005
X0Y-0005
X0005Y-0025
X001
X0008636Y-0021463
X0013462Y-0021844
X0014097Y-002286
X00149456Y-00214597
X00145438Y-00205794
X0012573Y-0018161
X0011557Y-0014859
X00142611Y-00145711
X0014605Y-0015748
X00168232Y-00149788
X00174842Y-00142965
X0018415Y-0014605
X001905Y-0013081
X002Y-00125
Y-0010629
X00223764Y-00105394
X00219Y-00097
Y-00114
X00222042Y-00125938
X00249536Y-00127173
X00259Y-00128
Y-00103
X0026416Y-0007874
X00274Y-000795
X00284Y-00098
X003Y-001
X00292906Y-00115085
X00283Y-00123
X00274969Y-00116763
X00275Y-0016738
X0025716Y-0015587
X0022795
X0020447Y-0019812
X0018415
X0025Y-002
X00275Y-00225
X003005Y-0023
X00306211Y-00216211
X0032Y-002105
X00333789Y-00216211
X003395Y-0023
X00333789Y-00243789
X0032Y-002495
X00306211Y-00243789
X003Y-002
Y-0015
X00325Y-00175
X003Y-0005
X0025Y-00075
X00232Y-00083
X00227Y-00061
X0015Y-0005
X0015748Y-0009525
Y-0011303
X001397
X00129242Y-00093712
X0015748Y-0013081
X0017526Y-0011303
X0022098Y-0024384
X00236574Y-0001335
X00234Y0
X00201204Y-00013345
X00184Y0
X00125Y-00025
X00275
X003Y0
X00075Y-00025
X00025
X00013789Y-00013789
X0Y-000195
X-00013789Y-00013789
X-000195Y0
X-00013789Y00013789
X0Y000195
X00013789Y00013789
X000195Y0
X0004572Y0001397
T03
X0032825Y-00155
Y-0013
Y-00105
Y-0008
Y-00055
T04
X001901Y-0001515
X002479
T05
X0032Y-0023
X0Y0
M30
