G04*
G04 #@! TF.GenerationSoftware,Altium Limited,Altium Designer,25.2.1 (25)*
G04*
G04 Layer_Color=32896*
%FSLAX44Y44*%
%MOMM*%
G71*
G04*
G04 #@! TF.SameCoordinates,073125F1-E53F-4E54-89B7-3FE71556A111*
G04*
G04*
G04 #@! TF.FilePolarity,Positive*
G04*
G01*
G75*
%ADD17C,0.1000*%
G36*
X14862Y-193444D02*
X14982D01*
Y-193564D01*
X15102D01*
Y-194044D01*
X15222D01*
Y-194765D01*
X15342D01*
Y-195365D01*
X15462D01*
Y-195966D01*
X15582D01*
Y-196686D01*
X15702D01*
Y-197287D01*
X15822D01*
Y-197887D01*
X15942D01*
Y-198608D01*
X16062D01*
Y-199208D01*
X16183D01*
Y-199929D01*
X16303D01*
Y-200529D01*
X16423D01*
Y-201129D01*
X16543D01*
Y-201730D01*
X16663D01*
Y-201850D01*
X16783D01*
Y-201970D01*
X17143D01*
Y-202090D01*
X17383D01*
Y-202210D01*
X17623D01*
Y-202330D01*
X17984D01*
Y-202450D01*
X18224D01*
Y-202570D01*
X18584D01*
Y-202691D01*
X18824D01*
Y-202811D01*
X19185D01*
Y-202931D01*
X19425D01*
Y-203051D01*
X19785D01*
Y-203171D01*
X20025D01*
Y-203291D01*
X20265D01*
Y-203411D01*
X20626D01*
Y-203531D01*
X20866D01*
Y-203651D01*
X21226D01*
Y-203771D01*
X21466D01*
Y-203891D01*
X21827D01*
Y-204011D01*
X22067D01*
Y-204132D01*
X22907D01*
Y-204011D01*
X23027D01*
Y-203891D01*
X23147D01*
Y-203771D01*
X23388D01*
Y-203651D01*
X23508D01*
Y-203531D01*
X23748D01*
Y-203411D01*
X23868D01*
Y-203291D01*
X24108D01*
Y-203171D01*
X24228D01*
Y-203051D01*
X24468D01*
Y-202931D01*
X24588D01*
Y-202811D01*
X24829D01*
Y-202691D01*
X24949D01*
Y-202570D01*
X25189D01*
Y-202450D01*
X25309D01*
Y-202330D01*
X25429D01*
Y-202210D01*
X25669D01*
Y-202090D01*
X25789D01*
Y-201970D01*
X26030D01*
Y-201850D01*
X26150D01*
Y-201730D01*
X26390D01*
Y-201610D01*
X26510D01*
Y-201490D01*
X26750D01*
Y-201370D01*
X26870D01*
Y-201250D01*
X27110D01*
Y-201129D01*
X27230D01*
Y-201009D01*
X27471D01*
Y-200889D01*
X27591D01*
Y-200769D01*
X27711D01*
Y-200649D01*
X27951D01*
Y-200529D01*
X28071D01*
Y-200409D01*
X28311D01*
Y-200289D01*
X28431D01*
Y-200169D01*
X28671D01*
Y-200049D01*
X28791D01*
Y-199929D01*
X29032D01*
Y-199809D01*
X29152D01*
Y-199688D01*
X29392D01*
Y-199568D01*
X29872D01*
Y-199688D01*
X29992D01*
Y-199809D01*
X30113D01*
Y-199929D01*
X30233D01*
Y-200049D01*
X30353D01*
Y-200169D01*
X30473D01*
Y-200289D01*
X30593D01*
Y-200409D01*
X30713D01*
Y-200529D01*
X30833D01*
Y-200649D01*
X30953D01*
Y-200769D01*
X31073D01*
Y-200889D01*
X31193D01*
Y-201009D01*
X31313D01*
Y-201129D01*
X31433D01*
Y-201250D01*
X31553D01*
Y-201370D01*
X31674D01*
Y-201490D01*
X31794D01*
Y-201610D01*
X31914D01*
Y-201730D01*
X32034D01*
Y-201850D01*
X32154D01*
Y-201970D01*
X32274D01*
Y-202090D01*
X32394D01*
Y-202210D01*
X32514D01*
Y-202330D01*
X32634D01*
Y-202450D01*
X32754D01*
Y-202570D01*
X32875D01*
Y-202691D01*
X32994D01*
Y-202811D01*
X33115D01*
Y-202931D01*
X33235D01*
Y-203051D01*
X33355D01*
Y-203171D01*
X33475D01*
Y-203291D01*
X33595D01*
Y-203411D01*
X33715D01*
Y-203531D01*
X33835D01*
Y-203651D01*
X33955D01*
Y-203771D01*
X34075D01*
Y-203891D01*
X34195D01*
Y-204011D01*
X34316D01*
Y-204132D01*
X34436D01*
Y-204252D01*
X34556D01*
Y-204372D01*
X34676D01*
Y-204492D01*
X34796D01*
Y-204612D01*
X34916D01*
Y-204732D01*
X35036D01*
Y-204852D01*
X35156D01*
Y-204972D01*
X35276D01*
Y-205092D01*
X35396D01*
Y-205212D01*
X35516D01*
Y-205813D01*
X35396D01*
Y-205933D01*
X35276D01*
Y-206173D01*
X35156D01*
Y-206293D01*
X35036D01*
Y-206413D01*
X34916D01*
Y-206653D01*
X34796D01*
Y-206773D01*
X34676D01*
Y-207014D01*
X34556D01*
Y-207134D01*
X34436D01*
Y-207374D01*
X34316D01*
Y-207494D01*
X34195D01*
Y-207734D01*
X34075D01*
Y-207854D01*
X33955D01*
Y-208094D01*
X33835D01*
Y-208214D01*
X33715D01*
Y-208455D01*
X33595D01*
Y-208575D01*
X33475D01*
Y-208695D01*
X33355D01*
Y-208935D01*
X33235D01*
Y-209055D01*
X33115D01*
Y-209295D01*
X32994D01*
Y-209415D01*
X32875D01*
Y-209655D01*
X32754D01*
Y-209776D01*
X32634D01*
Y-210016D01*
X32514D01*
Y-210136D01*
X32394D01*
Y-210376D01*
X32274D01*
Y-210496D01*
X32154D01*
Y-210736D01*
X32034D01*
Y-210856D01*
X31914D01*
Y-210977D01*
X31794D01*
Y-211217D01*
X31674D01*
Y-211337D01*
X31553D01*
Y-211577D01*
X31433D01*
Y-211697D01*
X31313D01*
Y-211937D01*
X31193D01*
Y-212057D01*
X31073D01*
Y-212297D01*
X30953D01*
Y-212658D01*
X31073D01*
Y-213018D01*
X31193D01*
Y-213258D01*
X31313D01*
Y-213498D01*
X31433D01*
Y-213859D01*
X31553D01*
Y-214099D01*
X31674D01*
Y-214339D01*
X31794D01*
Y-214699D01*
X31914D01*
Y-214939D01*
X32034D01*
Y-215180D01*
X32154D01*
Y-215540D01*
X32274D01*
Y-215780D01*
X32394D01*
Y-216020D01*
X32514D01*
Y-216380D01*
X32634D01*
Y-216621D01*
X32754D01*
Y-216741D01*
Y-216981D01*
X32875D01*
Y-217221D01*
X32994D01*
Y-217461D01*
X33115D01*
Y-217821D01*
X33235D01*
Y-218062D01*
X33355D01*
Y-218302D01*
X33475D01*
Y-218422D01*
X33595D01*
Y-218542D01*
X33955D01*
Y-218662D01*
X34556D01*
Y-218782D01*
X35276D01*
Y-218902D01*
X35877D01*
Y-219022D01*
X36477D01*
Y-219142D01*
X37197D01*
Y-219262D01*
X37798D01*
Y-219382D01*
X38398D01*
Y-219503D01*
X38999D01*
Y-219623D01*
X39719D01*
Y-219743D01*
X40320D01*
Y-219863D01*
X40920D01*
Y-219983D01*
X41521D01*
Y-220103D01*
X41641D01*
Y-220223D01*
X41761D01*
Y-228509D01*
X41641D01*
Y-228629D01*
X41280D01*
Y-228749D01*
X40680D01*
Y-228869D01*
X39959D01*
Y-228989D01*
X39359D01*
Y-229109D01*
X38639D01*
Y-229230D01*
X38038D01*
Y-229350D01*
X37438D01*
Y-229470D01*
X36717D01*
Y-229590D01*
X36117D01*
Y-229710D01*
X35516D01*
Y-229830D01*
X34796D01*
Y-229950D01*
X34195D01*
Y-230070D01*
X33835D01*
Y-230190D01*
X33715D01*
Y-230310D01*
X33595D01*
Y-230550D01*
X33475D01*
Y-230791D01*
X33355D01*
Y-231151D01*
X33235D01*
Y-231391D01*
X33115D01*
Y-231751D01*
X32994D01*
Y-231992D01*
X32875D01*
Y-232352D01*
X32754D01*
Y-232592D01*
X32634D01*
Y-232952D01*
X32514D01*
Y-233192D01*
X32394D01*
Y-233553D01*
X32274D01*
Y-233793D01*
X32154D01*
Y-234153D01*
X32034D01*
Y-234393D01*
X31914D01*
Y-234753D01*
X31794D01*
Y-234994D01*
X31674D01*
Y-235354D01*
X31553D01*
Y-235594D01*
X31433D01*
Y-235954D01*
X31313D01*
Y-236194D01*
X31193D01*
Y-236675D01*
X31313D01*
Y-236915D01*
X31433D01*
Y-237155D01*
X31553D01*
Y-237275D01*
X31674D01*
Y-237395D01*
X31794D01*
Y-237636D01*
X31914D01*
Y-237756D01*
X32034D01*
Y-237996D01*
X32154D01*
Y-238116D01*
X32274D01*
Y-238356D01*
X32394D01*
Y-238476D01*
X32514D01*
Y-238716D01*
X32634D01*
Y-238836D01*
X32754D01*
Y-239077D01*
X32875D01*
Y-239197D01*
X32994D01*
Y-239317D01*
X33115D01*
Y-239557D01*
X33235D01*
Y-239677D01*
X33355D01*
Y-239917D01*
X33475D01*
Y-240037D01*
X33595D01*
Y-240277D01*
X33715D01*
Y-240397D01*
X33835D01*
Y-240638D01*
X33955D01*
Y-240758D01*
X34075D01*
Y-240998D01*
X34195D01*
Y-241118D01*
X34316D01*
Y-241358D01*
X34436D01*
Y-241478D01*
X34556D01*
Y-241598D01*
X34676D01*
Y-241839D01*
X34796D01*
Y-241959D01*
X34916D01*
Y-242199D01*
X35036D01*
Y-242319D01*
X35156D01*
Y-242559D01*
X35276D01*
Y-242679D01*
X35396D01*
Y-242919D01*
X35516D01*
Y-243520D01*
X35396D01*
Y-243640D01*
X35276D01*
Y-243760D01*
X35156D01*
Y-243880D01*
X35036D01*
Y-244000D01*
X34916D01*
Y-244120D01*
X34796D01*
Y-244240D01*
X34676D01*
Y-244360D01*
X34556D01*
Y-244480D01*
X34436D01*
Y-244601D01*
X34316D01*
Y-244721D01*
X34195D01*
Y-244841D01*
X34075D01*
Y-244961D01*
X33955D01*
Y-245081D01*
X33835D01*
Y-245201D01*
X33715D01*
Y-245321D01*
X33595D01*
Y-245441D01*
X33475D01*
Y-245561D01*
X33355D01*
Y-245681D01*
X33235D01*
Y-245801D01*
X33115D01*
Y-245921D01*
X32994D01*
Y-246042D01*
X32875D01*
Y-246162D01*
X32754D01*
Y-246282D01*
X32634D01*
Y-246402D01*
X32514D01*
Y-246522D01*
X32394D01*
Y-246642D01*
X32274D01*
Y-246762D01*
X32154D01*
Y-246882D01*
X32034D01*
Y-247002D01*
X31914D01*
Y-247122D01*
X31794D01*
Y-247242D01*
X31674D01*
Y-247362D01*
X31553D01*
Y-247483D01*
X31433D01*
Y-247603D01*
X31313D01*
Y-247723D01*
X31193D01*
Y-247843D01*
X31073D01*
Y-247963D01*
X30953D01*
Y-248083D01*
X30833D01*
Y-248203D01*
X30713D01*
Y-248323D01*
X30593D01*
Y-248443D01*
X30473D01*
Y-248563D01*
X30353D01*
Y-248683D01*
X30233D01*
Y-248804D01*
X30113D01*
Y-248924D01*
X29992D01*
Y-249044D01*
X29752D01*
Y-249164D01*
X29392D01*
Y-249044D01*
X29272D01*
Y-248924D01*
X29032D01*
Y-248804D01*
X28912D01*
Y-248683D01*
X28791D01*
Y-248563D01*
X28551D01*
Y-248443D01*
X28431D01*
Y-248323D01*
X28191D01*
Y-248203D01*
X28071D01*
Y-248083D01*
X27831D01*
Y-247963D01*
X27711D01*
Y-247843D01*
X27471D01*
Y-247723D01*
X27350D01*
Y-247603D01*
X27110D01*
Y-247483D01*
X26990D01*
Y-247362D01*
X26750D01*
Y-247242D01*
X26630D01*
Y-247122D01*
X26510D01*
Y-247002D01*
X26270D01*
Y-246882D01*
X26150D01*
Y-246762D01*
X25909D01*
Y-246642D01*
X25789D01*
Y-246522D01*
X25549D01*
Y-246402D01*
X25429D01*
Y-246282D01*
X25189D01*
Y-246162D01*
X25069D01*
Y-246042D01*
X24829D01*
Y-245921D01*
X24709D01*
Y-245801D01*
X24588D01*
Y-245681D01*
X24348D01*
Y-245561D01*
X24228D01*
Y-245441D01*
X23988D01*
Y-245321D01*
X23868D01*
Y-245201D01*
X23628D01*
Y-245081D01*
X23508D01*
Y-244961D01*
X23268D01*
Y-244841D01*
X22787D01*
Y-244961D01*
X22547D01*
Y-245081D01*
X22307D01*
Y-245201D01*
X22067D01*
Y-245321D01*
X21827D01*
Y-245441D01*
X21586D01*
Y-245561D01*
X21466D01*
Y-245681D01*
X21226D01*
Y-245801D01*
X20986D01*
Y-245921D01*
X20746D01*
Y-246042D01*
X20506D01*
Y-246162D01*
X20265D01*
Y-246282D01*
X20025D01*
Y-246402D01*
X19905D01*
Y-246282D01*
X19665D01*
Y-246042D01*
X19545D01*
Y-245681D01*
X19425D01*
Y-245441D01*
X19305D01*
Y-245081D01*
X19185D01*
Y-244841D01*
X19065D01*
Y-244601D01*
X18944D01*
Y-244240D01*
X18824D01*
Y-244000D01*
X18704D01*
Y-243640D01*
X18584D01*
Y-243400D01*
X18464D01*
Y-243039D01*
X18344D01*
Y-242799D01*
X18224D01*
Y-242559D01*
X18104D01*
Y-242199D01*
X17984D01*
Y-241959D01*
X17864D01*
Y-241598D01*
X17744D01*
Y-241358D01*
X17623D01*
Y-241118D01*
X17503D01*
Y-240758D01*
X17383D01*
Y-240518D01*
X17263D01*
Y-240157D01*
X17143D01*
Y-239917D01*
X17023D01*
Y-239557D01*
X16903D01*
Y-239317D01*
X16783D01*
Y-239077D01*
X16663D01*
Y-238716D01*
X16543D01*
Y-238476D01*
X16423D01*
Y-238116D01*
X16303D01*
Y-237876D01*
X16183D01*
Y-237636D01*
X16062D01*
Y-237275D01*
X15942D01*
Y-237035D01*
X15822D01*
Y-236675D01*
X15702D01*
Y-236435D01*
X15582D01*
Y-236075D01*
X15462D01*
Y-235834D01*
X15342D01*
Y-235594D01*
X15222D01*
Y-235234D01*
X15102D01*
Y-234994D01*
X14982D01*
Y-234633D01*
X14862D01*
Y-234393D01*
X14741D01*
Y-234153D01*
X14621D01*
Y-233793D01*
X14501D01*
Y-233553D01*
X14381D01*
Y-233192D01*
X14261D01*
Y-232952D01*
X14141D01*
Y-232592D01*
X14261D01*
Y-232472D01*
X14381D01*
Y-232352D01*
X14501D01*
Y-232232D01*
X14741D01*
Y-232112D01*
X14862D01*
Y-231992D01*
X15102D01*
Y-231871D01*
X15222D01*
Y-231751D01*
X15342D01*
Y-231631D01*
X15582D01*
Y-231511D01*
X15702D01*
Y-231391D01*
X15942D01*
Y-231271D01*
X16062D01*
Y-231151D01*
X16183D01*
Y-231031D01*
X16423D01*
Y-230911D01*
X16543D01*
Y-230791D01*
X16663D01*
Y-230671D01*
X16783D01*
Y-230550D01*
X16903D01*
Y-230430D01*
X17023D01*
Y-230310D01*
X17143D01*
Y-230190D01*
X17263D01*
Y-230070D01*
X17383D01*
Y-229950D01*
X17503D01*
Y-229710D01*
X17623D01*
Y-229590D01*
X17744D01*
Y-229470D01*
X17864D01*
Y-229230D01*
X17984D01*
Y-229109D01*
X18104D01*
Y-228869D01*
X18224D01*
Y-228749D01*
X18344D01*
Y-228509D01*
X18464D01*
Y-228269D01*
X18584D01*
Y-228029D01*
X18704D01*
Y-227668D01*
X18824D01*
Y-227428D01*
X18944D01*
Y-227068D01*
X19065D01*
Y-226708D01*
X19185D01*
Y-226107D01*
X19305D01*
Y-225387D01*
X19425D01*
Y-223225D01*
X19305D01*
Y-222505D01*
X19185D01*
Y-222145D01*
X19065D01*
Y-221664D01*
X18944D01*
Y-221304D01*
X18824D01*
Y-221064D01*
X18704D01*
Y-220823D01*
X18584D01*
Y-220463D01*
X18464D01*
Y-220223D01*
X18344D01*
Y-220103D01*
X18224D01*
Y-219863D01*
X18104D01*
Y-219623D01*
X17984D01*
Y-219503D01*
X17864D01*
Y-219382D01*
X17744D01*
Y-219142D01*
X17623D01*
Y-219022D01*
X17503D01*
Y-218902D01*
X17383D01*
Y-218782D01*
X17263D01*
Y-218542D01*
X17143D01*
Y-218422D01*
X17023D01*
Y-218302D01*
X16903D01*
Y-218182D01*
X16783D01*
Y-218062D01*
X16663D01*
Y-217941D01*
X16423D01*
Y-217821D01*
X16303D01*
Y-217701D01*
X16183D01*
Y-217581D01*
X16062D01*
Y-217461D01*
X15942D01*
Y-217341D01*
X15702D01*
Y-217221D01*
X15582D01*
Y-217101D01*
X15342D01*
Y-216981D01*
X15102D01*
Y-216861D01*
X14982D01*
Y-216741D01*
X14741D01*
Y-216621D01*
X14501D01*
Y-216500D01*
X14261D01*
Y-216380D01*
X13901D01*
Y-216260D01*
X13541D01*
Y-216140D01*
X13180D01*
Y-216020D01*
X12700D01*
Y-215900D01*
X12220D01*
Y-215780D01*
X9338D01*
Y-215900D01*
X8737D01*
Y-216020D01*
X8257D01*
Y-216140D01*
X7897D01*
Y-216260D01*
X7656D01*
Y-216380D01*
X7296D01*
Y-216500D01*
X7056D01*
Y-216621D01*
X6816D01*
Y-216741D01*
X6576D01*
Y-216861D01*
X6335D01*
Y-216981D01*
X6215D01*
Y-217101D01*
X5975D01*
Y-217221D01*
X5855D01*
Y-217341D01*
X5615D01*
Y-217461D01*
X5495D01*
Y-217581D01*
X5375D01*
Y-217701D01*
X5135D01*
Y-217821D01*
X5015D01*
Y-217941D01*
X4894D01*
Y-218062D01*
X4774D01*
Y-218182D01*
X4654D01*
Y-218302D01*
X4534D01*
Y-218422D01*
X4414D01*
Y-218542D01*
X4294D01*
Y-218662D01*
X4174D01*
Y-218782D01*
X4054D01*
Y-219022D01*
X3934D01*
Y-219142D01*
X3814D01*
Y-219262D01*
X3694D01*
Y-219503D01*
X3573D01*
Y-219623D01*
X3453D01*
Y-219863D01*
X3333D01*
Y-220103D01*
X3213D01*
Y-220223D01*
X3093D01*
Y-220463D01*
X2973D01*
Y-220703D01*
X2853D01*
Y-220944D01*
X2733D01*
Y-221304D01*
X2613D01*
Y-221664D01*
X2493D01*
Y-222024D01*
X2373D01*
Y-222505D01*
X2253D01*
Y-223225D01*
X2132D01*
Y-225627D01*
X2253D01*
Y-226227D01*
X2373D01*
Y-226708D01*
X2493D01*
Y-227068D01*
X2613D01*
Y-227428D01*
X2733D01*
Y-227789D01*
X2853D01*
Y-228029D01*
X2973D01*
Y-228269D01*
X3093D01*
Y-228509D01*
X3213D01*
Y-228749D01*
X3333D01*
Y-228869D01*
X3453D01*
Y-229109D01*
X3573D01*
Y-229230D01*
X3694D01*
Y-229470D01*
X3814D01*
Y-229590D01*
X3934D01*
Y-229710D01*
X4054D01*
Y-229950D01*
X4174D01*
Y-230070D01*
X4294D01*
Y-230190D01*
X4414D01*
Y-230310D01*
X4534D01*
Y-230430D01*
X4654D01*
Y-230550D01*
X4774D01*
Y-230671D01*
X4894D01*
Y-230791D01*
X5015D01*
Y-230911D01*
X5135D01*
Y-231031D01*
X5375D01*
Y-231151D01*
X5495D01*
Y-231271D01*
X5615D01*
Y-231391D01*
X5855D01*
Y-231511D01*
X5975D01*
Y-231631D01*
X6095D01*
Y-231751D01*
X6335D01*
Y-231871D01*
X6456D01*
Y-231992D01*
X6576D01*
Y-232112D01*
X6816D01*
Y-232232D01*
X6936D01*
Y-232352D01*
X7176D01*
Y-232472D01*
X7296D01*
Y-232712D01*
X7416D01*
Y-232832D01*
X7296D01*
Y-233192D01*
X7176D01*
Y-233433D01*
X7056D01*
Y-233793D01*
X6936D01*
Y-234033D01*
X6816D01*
Y-234273D01*
X6696D01*
Y-234633D01*
X6576D01*
Y-234874D01*
X6456D01*
Y-235234D01*
X6335D01*
Y-235474D01*
X6215D01*
Y-235714D01*
X6095D01*
Y-236075D01*
X5975D01*
Y-236315D01*
X5855D01*
Y-236675D01*
X5735D01*
Y-236915D01*
X5615D01*
Y-237275D01*
X5495D01*
Y-237516D01*
X5375D01*
Y-237756D01*
X5255D01*
Y-238116D01*
X5135D01*
Y-238356D01*
X5015D01*
Y-238716D01*
X4894D01*
Y-238957D01*
X4774D01*
Y-239197D01*
X4654D01*
Y-239557D01*
X4534D01*
Y-239797D01*
X4414D01*
Y-240157D01*
X4294D01*
Y-240397D01*
X4174D01*
Y-240758D01*
X4054D01*
Y-240998D01*
X3934D01*
Y-241238D01*
X3814D01*
Y-241598D01*
X3694D01*
Y-241839D01*
X3573D01*
Y-242199D01*
X3453D01*
Y-242439D01*
X3333D01*
Y-242679D01*
X3213D01*
Y-243039D01*
X3093D01*
Y-243280D01*
X2973D01*
Y-243640D01*
X2853D01*
Y-243880D01*
X2733D01*
Y-244240D01*
X2613D01*
Y-244480D01*
X2493D01*
Y-244721D01*
X2373D01*
Y-245081D01*
X2253D01*
Y-245321D01*
X2132D01*
Y-245681D01*
X2012D01*
Y-245921D01*
X1892D01*
Y-246162D01*
X1772D01*
Y-246282D01*
X1652D01*
Y-246402D01*
X1532D01*
Y-246282D01*
X1292D01*
Y-246162D01*
X1052D01*
Y-246042D01*
X812D01*
Y-245921D01*
X571D01*
Y-245801D01*
X331D01*
Y-245681D01*
X91D01*
Y-245561D01*
X-149D01*
Y-245441D01*
X-389D01*
Y-245321D01*
X-509D01*
Y-245201D01*
X-750D01*
Y-245081D01*
X-990D01*
Y-244961D01*
X-1230D01*
Y-244841D01*
X-1710D01*
Y-244961D01*
X-1951D01*
Y-245081D01*
X-2071D01*
Y-245201D01*
X-2311D01*
Y-245321D01*
X-2431D01*
Y-245441D01*
X-2671D01*
Y-245561D01*
X-2791D01*
Y-245681D01*
X-3031D01*
Y-245801D01*
X-3151D01*
Y-245921D01*
X-3392D01*
Y-246042D01*
X-3512D01*
Y-246162D01*
X-3752D01*
Y-246282D01*
X-3872D01*
Y-246402D01*
X-4112D01*
Y-246522D01*
X-4232D01*
Y-246642D01*
X-4352D01*
Y-246762D01*
X-4592D01*
Y-246882D01*
X-4712D01*
Y-247002D01*
X-4953D01*
Y-247122D01*
X-5073D01*
Y-247242D01*
X-5313D01*
Y-247362D01*
X-5433D01*
Y-247483D01*
X-5673D01*
Y-247603D01*
X-5793D01*
Y-247723D01*
X-6033D01*
Y-247843D01*
X-6154D01*
Y-247963D01*
X-6274D01*
Y-248083D01*
X-6514D01*
Y-248203D01*
X-6634D01*
Y-248323D01*
X-6874D01*
Y-248443D01*
X-6994D01*
Y-248563D01*
X-7234D01*
Y-248683D01*
X-7354D01*
Y-248804D01*
X-7595D01*
Y-248924D01*
X-7715D01*
Y-249044D01*
X-7955D01*
Y-249164D01*
X-8195D01*
Y-249044D01*
X-8435D01*
Y-248924D01*
X-8555D01*
Y-248804D01*
X-8675D01*
Y-248683D01*
X-8795D01*
Y-248563D01*
X-8916D01*
Y-248443D01*
X-9036D01*
Y-248323D01*
X-9156D01*
Y-248203D01*
X-9276D01*
Y-248083D01*
X-9396D01*
Y-247963D01*
X-9516D01*
Y-247843D01*
X-9636D01*
Y-247723D01*
X-9756D01*
Y-247603D01*
X-9876D01*
Y-247483D01*
X-9996D01*
Y-247362D01*
X-10116D01*
Y-247242D01*
X-10236D01*
Y-247122D01*
X-10357D01*
Y-247002D01*
X-10477D01*
Y-246882D01*
X-10597D01*
Y-246762D01*
X-10717D01*
Y-246642D01*
X-10837D01*
Y-246522D01*
X-10957D01*
Y-246402D01*
X-11077D01*
Y-246282D01*
X-11197D01*
Y-246162D01*
X-11317D01*
Y-246042D01*
X-11437D01*
Y-245921D01*
X-11557D01*
Y-245801D01*
X-11677D01*
Y-245681D01*
X-11797D01*
Y-245561D01*
X-11918D01*
Y-245441D01*
X-12038D01*
Y-245321D01*
X-12158D01*
Y-245201D01*
X-12278D01*
Y-245081D01*
X-12398D01*
Y-244961D01*
X-12518D01*
Y-244841D01*
X-12638D01*
Y-244721D01*
X-12758D01*
Y-244601D01*
X-12878D01*
Y-244480D01*
X-12998D01*
Y-244360D01*
X-13118D01*
Y-244240D01*
X-13239D01*
Y-244120D01*
X-13359D01*
Y-244000D01*
X-13479D01*
Y-243880D01*
X-13599D01*
Y-243760D01*
X-13719D01*
Y-243640D01*
X-13839D01*
Y-243520D01*
X-13959D01*
Y-243280D01*
X-14079D01*
Y-243039D01*
X-13959D01*
Y-242799D01*
X-13839D01*
Y-242679D01*
X-13719D01*
Y-242439D01*
X-13599D01*
Y-242319D01*
X-13479D01*
Y-242079D01*
X-13359D01*
Y-241959D01*
X-13239D01*
Y-241839D01*
X-13118D01*
Y-241598D01*
X-12998D01*
Y-241478D01*
X-12878D01*
Y-241238D01*
X-12758D01*
Y-241118D01*
X-12638D01*
Y-240878D01*
X-12518D01*
Y-240758D01*
X-12398D01*
Y-240518D01*
X-12278D01*
Y-240397D01*
X-12158D01*
Y-240157D01*
X-12038D01*
Y-240037D01*
X-11918D01*
Y-239797D01*
X-11797D01*
Y-239677D01*
X-11677D01*
Y-239557D01*
X-11557D01*
Y-239317D01*
X-11437D01*
Y-239197D01*
X-11317D01*
Y-238957D01*
X-11197D01*
Y-238836D01*
X-11077D01*
Y-238596D01*
X-10957D01*
Y-238476D01*
X-10837D01*
Y-238236D01*
X-10717D01*
Y-238116D01*
X-10597D01*
Y-237876D01*
X-10477D01*
Y-237756D01*
X-10357D01*
Y-237636D01*
X-10236D01*
Y-237395D01*
X-10116D01*
Y-237275D01*
X-9996D01*
Y-237035D01*
X-9876D01*
Y-236915D01*
X-9756D01*
Y-236675D01*
X-9636D01*
Y-236315D01*
X-9756D01*
Y-235954D01*
X-9876D01*
Y-235714D01*
X-9996D01*
Y-235354D01*
X-10116D01*
Y-235114D01*
X-10236D01*
Y-234753D01*
X-10357D01*
Y-234513D01*
X-10477D01*
Y-234153D01*
X-10597D01*
Y-233913D01*
X-10717D01*
Y-233553D01*
X-10837D01*
Y-233312D01*
X-10957D01*
Y-232952D01*
X-11077D01*
Y-232712D01*
X-11197D01*
Y-232352D01*
X-11317D01*
Y-232112D01*
X-11437D01*
Y-231751D01*
X-11557D01*
Y-231511D01*
X-11677D01*
Y-231151D01*
X-11797D01*
Y-230911D01*
X-11918D01*
Y-230550D01*
X-12038D01*
Y-230310D01*
X-12158D01*
Y-230190D01*
X-12278D01*
Y-230070D01*
X-12638D01*
Y-229950D01*
X-13239D01*
Y-229830D01*
X-13959D01*
Y-229710D01*
X-14560D01*
Y-229590D01*
X-15160D01*
Y-229470D01*
X-15881D01*
Y-229350D01*
X-16481D01*
Y-229230D01*
X-17201D01*
Y-229109D01*
X-17802D01*
Y-228989D01*
X-18402D01*
Y-228869D01*
X-19123D01*
Y-228749D01*
X-19723D01*
Y-228629D01*
X-20083D01*
Y-228509D01*
X-20203D01*
Y-220223D01*
X-20083D01*
Y-220103D01*
X-19963D01*
Y-219983D01*
X-19483D01*
Y-219863D01*
X-18763D01*
Y-219743D01*
X-18162D01*
Y-219623D01*
X-17562D01*
Y-219503D01*
X-16841D01*
Y-219382D01*
X-16241D01*
Y-219262D01*
X-15640D01*
Y-219142D01*
X-15040D01*
Y-219022D01*
X-14319D01*
Y-218902D01*
X-13719D01*
Y-218782D01*
X-13118D01*
Y-218662D01*
X-12398D01*
Y-218542D01*
X-12038D01*
Y-218422D01*
X-11918D01*
Y-218302D01*
X-11797D01*
Y-217941D01*
X-11677D01*
Y-217701D01*
X-11557D01*
Y-217461D01*
X-11437D01*
Y-217101D01*
X-11317D01*
Y-216861D01*
X-11197D01*
Y-216621D01*
X-11077D01*
Y-216260D01*
X-10957D01*
Y-216020D01*
X-10837D01*
Y-215780D01*
X-10717D01*
Y-215420D01*
X-10597D01*
Y-215180D01*
X-10477D01*
Y-214939D01*
X-10357D01*
Y-214579D01*
X-10236D01*
Y-214339D01*
X-10116D01*
Y-214099D01*
X-9996D01*
Y-213738D01*
X-9876D01*
Y-213498D01*
X-9756D01*
Y-213138D01*
X-9636D01*
Y-212898D01*
X-9516D01*
Y-212538D01*
X-9396D01*
Y-212418D01*
X-9516D01*
Y-212177D01*
X-9636D01*
Y-211937D01*
X-9756D01*
Y-211817D01*
X-9876D01*
Y-211577D01*
X-9996D01*
Y-211457D01*
X-10116D01*
Y-211217D01*
X-10236D01*
Y-211097D01*
X-10357D01*
Y-210856D01*
X-10477D01*
Y-210736D01*
X-10597D01*
Y-210496D01*
X-10717D01*
Y-210376D01*
X-10837D01*
Y-210136D01*
X-10957D01*
Y-210016D01*
X-11077D01*
Y-209896D01*
X-11197D01*
Y-209655D01*
X-11317D01*
Y-209535D01*
X-11437D01*
Y-209295D01*
X-11557D01*
Y-209175D01*
X-11677D01*
Y-208935D01*
X-11797D01*
Y-208815D01*
X-11918D01*
Y-208575D01*
X-12038D01*
Y-208455D01*
X-12158D01*
Y-208214D01*
X-12278D01*
Y-208094D01*
X-12398D01*
Y-207974D01*
X-12518D01*
Y-207734D01*
X-12638D01*
Y-207614D01*
X-12758D01*
Y-207374D01*
X-12878D01*
Y-207254D01*
X-12998D01*
Y-207014D01*
X-13118D01*
Y-206894D01*
X-13239D01*
Y-206653D01*
X-13359D01*
Y-206533D01*
X-13479D01*
Y-206293D01*
X-13599D01*
Y-206173D01*
X-13719D01*
Y-205933D01*
X-13839D01*
Y-205813D01*
X-13959D01*
Y-205573D01*
X-14079D01*
Y-205332D01*
X-13959D01*
Y-205212D01*
X-13839D01*
Y-205092D01*
X-13719D01*
Y-204972D01*
X-13599D01*
Y-204732D01*
X-13479D01*
Y-204612D01*
X-13359D01*
Y-204492D01*
X-13239D01*
Y-204372D01*
X-13118D01*
Y-204252D01*
X-12998D01*
Y-204132D01*
X-12878D01*
Y-204011D01*
X-12758D01*
Y-203891D01*
X-12638D01*
Y-203771D01*
X-12518D01*
Y-203651D01*
X-12398D01*
Y-203531D01*
X-12278D01*
Y-203411D01*
X-12158D01*
Y-203291D01*
X-12038D01*
Y-203171D01*
X-11918D01*
Y-203051D01*
X-11797D01*
Y-202931D01*
X-11677D01*
Y-202811D01*
X-11557D01*
Y-202691D01*
X-11437D01*
Y-202570D01*
X-11317D01*
Y-202450D01*
X-11197D01*
Y-202330D01*
X-11077D01*
Y-202210D01*
X-10957D01*
Y-202090D01*
X-10837D01*
Y-201970D01*
X-10717D01*
Y-201850D01*
X-10597D01*
Y-201730D01*
X-10477D01*
Y-201610D01*
X-10357D01*
Y-201490D01*
X-10236D01*
Y-201370D01*
X-10116D01*
Y-201250D01*
X-9996D01*
Y-201129D01*
X-9876D01*
Y-201009D01*
X-9756D01*
Y-200889D01*
X-9636D01*
Y-200769D01*
X-9516D01*
Y-200649D01*
X-9396D01*
Y-200529D01*
X-9276D01*
Y-200409D01*
X-9156D01*
Y-200289D01*
X-9036D01*
Y-200169D01*
X-8916D01*
Y-200049D01*
X-8795D01*
Y-199929D01*
X-8675D01*
Y-199809D01*
X-8555D01*
Y-199688D01*
X-8435D01*
Y-199568D01*
X-7835D01*
Y-199688D01*
X-7595D01*
Y-199809D01*
X-7474D01*
Y-199929D01*
X-7234D01*
Y-200049D01*
X-7114D01*
Y-200169D01*
X-6994D01*
Y-200289D01*
X-6754D01*
Y-200409D01*
X-6634D01*
Y-200529D01*
X-6394D01*
Y-200649D01*
X-6274D01*
Y-200769D01*
X-6033D01*
Y-200889D01*
X-5913D01*
Y-201009D01*
X-5673D01*
Y-201129D01*
X-5553D01*
Y-201250D01*
X-5313D01*
Y-201370D01*
X-5193D01*
Y-201490D01*
X-4953D01*
Y-201610D01*
X-4833D01*
Y-201730D01*
X-4712D01*
Y-201850D01*
X-4472D01*
Y-201970D01*
X-4352D01*
Y-202090D01*
X-4112D01*
Y-202210D01*
X-3992D01*
Y-202330D01*
X-3752D01*
Y-202450D01*
X-3632D01*
Y-202570D01*
X-3392D01*
Y-202691D01*
X-3271D01*
Y-202811D01*
X-3031D01*
Y-202931D01*
X-2911D01*
Y-203051D01*
X-2791D01*
Y-203171D01*
X-2551D01*
Y-203291D01*
X-2431D01*
Y-203411D01*
X-2191D01*
Y-203531D01*
X-2071D01*
Y-203651D01*
X-1830D01*
Y-203771D01*
X-1710D01*
Y-203891D01*
X-1470D01*
Y-204011D01*
X-1350D01*
Y-204132D01*
X-509D01*
Y-204011D01*
X-269D01*
Y-203891D01*
X91D01*
Y-203771D01*
X331D01*
Y-203651D01*
X571D01*
Y-203531D01*
X932D01*
Y-203411D01*
X1172D01*
Y-203291D01*
X1532D01*
Y-203171D01*
X1772D01*
Y-203051D01*
X2132D01*
Y-202931D01*
X2373D01*
Y-202811D01*
X2733D01*
Y-202691D01*
X2973D01*
Y-202570D01*
X3213D01*
Y-202450D01*
X3573D01*
Y-202330D01*
X3814D01*
Y-202210D01*
X4174D01*
Y-202090D01*
X4414D01*
Y-201970D01*
X4774D01*
Y-201850D01*
X4894D01*
Y-201610D01*
X5015D01*
Y-201009D01*
X5135D01*
Y-200409D01*
X5255D01*
Y-199688D01*
X5375D01*
Y-199088D01*
X5495D01*
Y-198367D01*
X5615D01*
Y-197767D01*
X5735D01*
Y-197167D01*
X5855D01*
Y-196446D01*
X5975D01*
Y-195846D01*
X6095D01*
Y-195125D01*
X6215D01*
Y-194525D01*
X6335D01*
Y-193924D01*
X6456D01*
Y-193564D01*
X6576D01*
Y-193444D01*
X6696D01*
Y-193324D01*
X14862D01*
Y-193444D01*
D02*
G37*
%LPC*%
G36*
X31313Y-203051D02*
X27110D01*
Y-204372D01*
X29992D01*
Y-205573D01*
X29872D01*
Y-205693D01*
X27350D01*
Y-206894D01*
X29992D01*
Y-209535D01*
X31433D01*
Y-207134D01*
Y-207014D01*
Y-203171D01*
X31313D01*
Y-203051D01*
D02*
G37*
G36*
X-5793D02*
X-7715D01*
Y-203171D01*
X-8435D01*
Y-203291D01*
X-8795D01*
Y-203411D01*
X-9036D01*
Y-203531D01*
X-9276D01*
Y-203651D01*
X-9516D01*
Y-203771D01*
X-9636D01*
Y-203891D01*
X-9756D01*
Y-204011D01*
X-9876D01*
Y-204132D01*
X-9996D01*
Y-204252D01*
X-10116D01*
Y-204492D01*
X-10236D01*
Y-204732D01*
X-10357D01*
Y-205092D01*
X-10477D01*
Y-205573D01*
X-10597D01*
Y-207014D01*
X-10477D01*
Y-207494D01*
X-10357D01*
Y-207854D01*
X-10236D01*
Y-208094D01*
X-10116D01*
Y-208335D01*
X-9996D01*
Y-208455D01*
X-9876D01*
Y-208575D01*
X-9756D01*
Y-208695D01*
X-9636D01*
Y-208815D01*
X-9516D01*
Y-208935D01*
X-9396D01*
Y-209055D01*
X-9156D01*
Y-209175D01*
X-8916D01*
Y-209295D01*
X-8675D01*
Y-209415D01*
X-8195D01*
Y-209535D01*
X-7354D01*
Y-209655D01*
X-6033D01*
Y-209535D01*
X-5193D01*
Y-209415D01*
X-4953D01*
Y-203171D01*
X-5793D01*
Y-203051D01*
D02*
G37*
G36*
X38879Y-221064D02*
X37558D01*
Y-221184D01*
X36837D01*
Y-221304D01*
X36477D01*
Y-221424D01*
X36237D01*
Y-221544D01*
X35997D01*
Y-221664D01*
X35877D01*
Y-221784D01*
X35756D01*
Y-221904D01*
X35636D01*
Y-222145D01*
X35516D01*
Y-222265D01*
X35396D01*
Y-222745D01*
X35276D01*
Y-223826D01*
X35396D01*
Y-224186D01*
X35516D01*
Y-224426D01*
X35636D01*
Y-224546D01*
X35756D01*
Y-224666D01*
X35877D01*
Y-224786D01*
X35997D01*
Y-224907D01*
X36117D01*
Y-225027D01*
X36357D01*
Y-225147D01*
X36717D01*
Y-225267D01*
X37077D01*
Y-225387D01*
X38278D01*
Y-225507D01*
X38759D01*
Y-227668D01*
X40080D01*
Y-227548D01*
X40200D01*
Y-221304D01*
X39959D01*
Y-221184D01*
X38879D01*
Y-221064D01*
D02*
G37*
G36*
X-14800D02*
X-16121D01*
Y-221184D01*
X-16841D01*
Y-221304D01*
X-17201D01*
Y-221424D01*
X-17442D01*
Y-221544D01*
X-17682D01*
Y-221664D01*
X-17802D01*
Y-221784D01*
X-17922D01*
Y-221904D01*
X-18042D01*
Y-222145D01*
X-18162D01*
Y-222385D01*
X-18282D01*
Y-223345D01*
X-18162D01*
Y-223585D01*
X-18042D01*
Y-223706D01*
X-17922D01*
Y-223826D01*
X-17802D01*
Y-223946D01*
X-17682D01*
Y-224066D01*
X-17562D01*
Y-224186D01*
X-17802D01*
Y-224306D01*
X-18042D01*
Y-224426D01*
X-18162D01*
Y-224546D01*
X-18282D01*
Y-224666D01*
X-18402D01*
Y-224907D01*
X-18522D01*
Y-225387D01*
X-18642D01*
Y-225867D01*
X-18522D01*
Y-226468D01*
X-18402D01*
Y-226708D01*
X-18282D01*
Y-226828D01*
X-18162D01*
Y-226948D01*
X-18042D01*
Y-227068D01*
X-17922D01*
Y-227188D01*
X-17682D01*
Y-227308D01*
X-17442D01*
Y-227428D01*
X-17081D01*
Y-227548D01*
X-16601D01*
Y-227668D01*
X-14319D01*
Y-227548D01*
X-13599D01*
Y-221304D01*
X-13719D01*
Y-221184D01*
X-14800D01*
Y-221064D01*
D02*
G37*
G36*
X-7354Y-239557D02*
X-8675D01*
Y-239677D01*
X-9276D01*
Y-239797D01*
X-9636D01*
Y-239917D01*
X-9876D01*
Y-240397D01*
X-9756D01*
Y-240758D01*
X-9636D01*
Y-241118D01*
X-9156D01*
Y-240998D01*
X-8795D01*
Y-240878D01*
X-7354D01*
Y-240998D01*
X-7114D01*
Y-241118D01*
X-6874D01*
Y-241238D01*
X-6754D01*
Y-241358D01*
X-6634D01*
Y-241478D01*
X-6514D01*
Y-241719D01*
X-6394D01*
Y-241959D01*
X-6274D01*
Y-242559D01*
X-6154D01*
Y-243160D01*
X-6274D01*
Y-243760D01*
X-6394D01*
Y-244120D01*
X-6514D01*
Y-244360D01*
X-6634D01*
Y-244480D01*
X-6754D01*
Y-244601D01*
X-6994D01*
Y-244721D01*
X-7114D01*
Y-244841D01*
X-7474D01*
Y-244961D01*
X-8795D01*
Y-244841D01*
X-9276D01*
Y-244721D01*
X-9516D01*
Y-244601D01*
X-9636D01*
Y-244721D01*
X-9756D01*
Y-245081D01*
X-9876D01*
Y-245441D01*
X-9996D01*
Y-245801D01*
X-9876D01*
Y-245921D01*
X-9636D01*
Y-246042D01*
X-9156D01*
Y-246162D01*
X-8555D01*
Y-246282D01*
X-7354D01*
Y-246162D01*
X-6754D01*
Y-246042D01*
X-6394D01*
Y-245921D01*
X-6154D01*
Y-245801D01*
X-5913D01*
Y-245681D01*
X-5793D01*
Y-245561D01*
X-5673D01*
Y-245441D01*
X-5553D01*
Y-245321D01*
X-5433D01*
Y-245201D01*
X-5313D01*
Y-245081D01*
X-5193D01*
Y-244841D01*
X-5073D01*
Y-244601D01*
X-4953D01*
Y-244360D01*
X-4833D01*
Y-243880D01*
X-4712D01*
Y-242079D01*
X-4833D01*
Y-241598D01*
X-4953D01*
Y-241358D01*
X-5073D01*
Y-241118D01*
X-5193D01*
Y-240878D01*
X-5313D01*
Y-240758D01*
X-5433D01*
Y-240638D01*
X-5553D01*
Y-240397D01*
X-5673D01*
Y-240277D01*
X-5913D01*
Y-240157D01*
X-6033D01*
Y-240037D01*
X-6274D01*
Y-239917D01*
X-6394D01*
Y-239797D01*
X-6754D01*
Y-239677D01*
X-7354D01*
Y-239557D01*
D02*
G37*
G36*
X29992D02*
X28551D01*
Y-239677D01*
X28071D01*
Y-239797D01*
X27711D01*
Y-239917D01*
X27471D01*
Y-240397D01*
X27591D01*
Y-240638D01*
X27711D01*
Y-240998D01*
X27831D01*
Y-241118D01*
X27951D01*
Y-240998D01*
X28311D01*
Y-240878D01*
X28791D01*
Y-240758D01*
X29632D01*
Y-240878D01*
X29992D01*
Y-240998D01*
X30113D01*
Y-241238D01*
X30233D01*
Y-241478D01*
X30113D01*
Y-241719D01*
X29992D01*
Y-241839D01*
X29752D01*
Y-241959D01*
X29632D01*
Y-242079D01*
X29272D01*
Y-242199D01*
X29032D01*
Y-242319D01*
X28671D01*
Y-242439D01*
X28431D01*
Y-242559D01*
X28191D01*
Y-242679D01*
X27951D01*
Y-242799D01*
X27831D01*
Y-242919D01*
X27591D01*
Y-243039D01*
X27471D01*
Y-243280D01*
X27350D01*
Y-243400D01*
X27230D01*
Y-243760D01*
X27110D01*
Y-244841D01*
X27230D01*
Y-245201D01*
X27350D01*
Y-245441D01*
X27471D01*
Y-245561D01*
X27591D01*
Y-245681D01*
X27711D01*
Y-245801D01*
X27951D01*
Y-245921D01*
X28191D01*
Y-246042D01*
X28551D01*
Y-246162D01*
X29392D01*
Y-246282D01*
X29992D01*
Y-246162D01*
X30833D01*
Y-246042D01*
X31313D01*
Y-245921D01*
X31674D01*
Y-245801D01*
X31794D01*
Y-245681D01*
X31674D01*
Y-245321D01*
X31553D01*
Y-244961D01*
X31433D01*
Y-244601D01*
X31193D01*
Y-244721D01*
X30953D01*
Y-244841D01*
X30713D01*
Y-244961D01*
X28912D01*
Y-244841D01*
X28791D01*
Y-244721D01*
X28671D01*
Y-244480D01*
X28551D01*
Y-244240D01*
X28671D01*
Y-244000D01*
X28791D01*
Y-243880D01*
X28912D01*
Y-243760D01*
X29032D01*
Y-243640D01*
X29392D01*
Y-243520D01*
X29632D01*
Y-243400D01*
X29992D01*
Y-243280D01*
X30353D01*
Y-243160D01*
X30593D01*
Y-243039D01*
X30833D01*
Y-242919D01*
X30953D01*
Y-242799D01*
X31073D01*
Y-242679D01*
X31193D01*
Y-242559D01*
X31313D01*
Y-242439D01*
X31433D01*
Y-242199D01*
X31553D01*
Y-241959D01*
X31674D01*
Y-240998D01*
X31553D01*
Y-240638D01*
X31433D01*
Y-240397D01*
X31313D01*
Y-240277D01*
X31193D01*
Y-240157D01*
X31073D01*
Y-240037D01*
X30953D01*
Y-239917D01*
X30713D01*
Y-239797D01*
X30473D01*
Y-239677D01*
X29992D01*
Y-239557D01*
D02*
G37*
%LPD*%
G36*
X-6514Y-204372D02*
X-6394D01*
Y-208335D01*
X-7715D01*
Y-208214D01*
X-8075D01*
Y-208094D01*
X-8315D01*
Y-207974D01*
X-8435D01*
Y-207854D01*
X-8555D01*
Y-207734D01*
X-8675D01*
Y-207614D01*
X-8795D01*
Y-207374D01*
X-8916D01*
Y-207134D01*
X-9036D01*
Y-206413D01*
X-9156D01*
Y-206173D01*
X-9036D01*
Y-205452D01*
X-8916D01*
Y-205212D01*
X-8795D01*
Y-204972D01*
X-8675D01*
Y-204852D01*
X-8555D01*
Y-204732D01*
X-8435D01*
Y-204612D01*
X-8315D01*
Y-204492D01*
X-8075D01*
Y-204372D01*
X-7474D01*
Y-204252D01*
X-6514D01*
Y-204372D01*
D02*
G37*
G36*
X38759Y-224186D02*
X37558D01*
Y-224066D01*
X37197D01*
Y-223946D01*
X36957D01*
Y-223826D01*
X36837D01*
Y-223345D01*
X36717D01*
Y-223225D01*
X36837D01*
Y-222745D01*
X36957D01*
Y-222625D01*
X37077D01*
Y-222505D01*
X37318D01*
Y-222385D01*
X38759D01*
Y-224186D01*
D02*
G37*
G36*
X-14920Y-223225D02*
Y-223345D01*
Y-223706D01*
X-16241D01*
Y-223585D01*
X-16601D01*
Y-223465D01*
X-16721D01*
Y-223345D01*
X-16841D01*
Y-222625D01*
X-16721D01*
Y-222505D01*
X-16601D01*
Y-222385D01*
X-16361D01*
Y-222265D01*
X-14920D01*
Y-223225D01*
D02*
G37*
G36*
Y-226468D02*
X-16481D01*
Y-226348D01*
X-16841D01*
Y-226227D01*
X-16961D01*
Y-226107D01*
X-17081D01*
Y-225267D01*
Y-225147D01*
X-16961D01*
Y-225027D01*
X-16721D01*
Y-224907D01*
X-16361D01*
Y-224786D01*
X-14920D01*
Y-226468D01*
D02*
G37*
D17*
X308962Y-54000D02*
X313960D01*
Y-56499D01*
X313127Y-57332D01*
X312294D01*
X311461Y-56499D01*
Y-54000D01*
Y-56499D01*
X310628Y-57332D01*
X309795D01*
X308962Y-56499D01*
Y-54000D01*
X311461Y-74000D02*
Y-77332D01*
X309795Y-75666D02*
X313127D01*
X308962Y-82331D02*
Y-78998D01*
X311461D01*
X310628Y-80665D01*
Y-81498D01*
X311461Y-82331D01*
X313127D01*
X313960Y-81498D01*
Y-79831D01*
X313127Y-78998D01*
X308962Y-83997D02*
X312294D01*
X313960Y-85663D01*
X312294Y-87329D01*
X308962D01*
X313960Y-104000D02*
X310628D01*
X308962Y-105666D01*
X310628Y-107332D01*
X313960D01*
X311461D01*
Y-104000D01*
X309795Y-127332D02*
X308962Y-126499D01*
Y-124833D01*
X309795Y-124000D01*
X313127D01*
X313960Y-124833D01*
Y-126499D01*
X313127Y-127332D01*
X311461D01*
Y-125666D01*
X313960Y-128998D02*
X308962D01*
X313960Y-132331D01*
X308962D01*
Y-133997D02*
X313960D01*
Y-136496D01*
X313127Y-137329D01*
X309795D01*
X308962Y-136496D01*
Y-133997D01*
X308962Y-154000D02*
X313960Y-157332D01*
X308962D02*
X313960Y-154000D01*
M02*
