G04*
G04 #@! TF.GenerationSoftware,Altium Limited,Altium Designer,25.2.1 (25)*
G04*
G04 Layer_Physical_Order=1*
G04 Layer_Color=255*
%FSLAX44Y44*%
%MOMM*%
G71*
G04*
G04 #@! TF.SameCoordinates,073125F1-E53F-4E54-89B7-3FE71556A111*
G04*
G04*
G04 #@! TF.FilePolarity,Positive*
G04*
G01*
G75*
%ADD12C,0.2540*%
%ADD14C,0.1500*%
%ADD21R,0.6200X0.6600*%
G04:AMPARAMS|DCode=22|XSize=1.26mm|YSize=0.59mm|CornerRadius=0.0738mm|HoleSize=0mm|Usage=FLASHONLY|Rotation=0.000|XOffset=0mm|YOffset=0mm|HoleType=Round|Shape=RoundedRectangle|*
%AMROUNDEDRECTD22*
21,1,1.2600,0.4425,0,0,0.0*
21,1,1.1125,0.5900,0,0,0.0*
1,1,0.1475,0.5563,-0.2213*
1,1,0.1475,-0.5563,-0.2213*
1,1,0.1475,-0.5563,0.2213*
1,1,0.1475,0.5563,0.2213*
%
%ADD22ROUNDEDRECTD22*%
G04:AMPARAMS|DCode=23|XSize=0.4mm|YSize=0.45mm|CornerRadius=0.06mm|HoleSize=0mm|Usage=FLASHONLY|Rotation=180.000|XOffset=0mm|YOffset=0mm|HoleType=Round|Shape=RoundedRectangle|*
%AMROUNDEDRECTD23*
21,1,0.4000,0.3300,0,0,180.0*
21,1,0.2800,0.4500,0,0,180.0*
1,1,0.1200,-0.1400,0.1650*
1,1,0.1200,0.1400,0.1650*
1,1,0.1200,0.1400,-0.1650*
1,1,0.1200,-0.1400,-0.1650*
%
%ADD23ROUNDEDRECTD23*%
G04:AMPARAMS|DCode=24|XSize=0.5mm|YSize=0.45mm|CornerRadius=0.0675mm|HoleSize=0mm|Usage=FLASHONLY|Rotation=180.000|XOffset=0mm|YOffset=0mm|HoleType=Round|Shape=RoundedRectangle|*
%AMROUNDEDRECTD24*
21,1,0.5000,0.3150,0,0,180.0*
21,1,0.3650,0.4500,0,0,180.0*
1,1,0.1350,-0.1825,0.1575*
1,1,0.1350,0.1825,0.1575*
1,1,0.1350,0.1825,-0.1575*
1,1,0.1350,-0.1825,-0.1575*
%
%ADD24ROUNDEDRECTD24*%
%ADD25R,0.5500X0.5500*%
%ADD26R,0.5500X0.5500*%
G04:AMPARAMS|DCode=27|XSize=0.2393mm|YSize=0.9354mm|CornerRadius=0.1196mm|HoleSize=0mm|Usage=FLASHONLY|Rotation=45.000|XOffset=0mm|YOffset=0mm|HoleType=Round|Shape=RoundedRectangle|*
%AMROUNDEDRECTD27*
21,1,0.2393,0.6961,0,0,45.0*
21,1,0.0000,0.9354,0,0,45.0*
1,1,0.2393,0.2461,-0.2461*
1,1,0.2393,0.2461,-0.2461*
1,1,0.2393,-0.2461,0.2461*
1,1,0.2393,-0.2461,0.2461*
%
%ADD27ROUNDEDRECTD27*%
G04:AMPARAMS|DCode=28|XSize=0.9354mm|YSize=0.2393mm|CornerRadius=0.1196mm|HoleSize=0mm|Usage=FLASHONLY|Rotation=45.000|XOffset=0mm|YOffset=0mm|HoleType=Round|Shape=RoundedRectangle|*
%AMROUNDEDRECTD28*
21,1,0.9354,0.0000,0,0,45.0*
21,1,0.6961,0.2393,0,0,45.0*
1,1,0.2393,0.2461,0.2461*
1,1,0.2393,-0.2461,-0.2461*
1,1,0.2393,-0.2461,-0.2461*
1,1,0.2393,0.2461,0.2461*
%
%ADD28ROUNDEDRECTD28*%
G04:AMPARAMS|DCode=29|XSize=0.9354mm|YSize=0.2393mm|CornerRadius=0mm|HoleSize=0mm|Usage=FLASHONLY|Rotation=45.000|XOffset=0mm|YOffset=0mm|HoleType=Round|Shape=Rectangle|*
%AMROTATEDRECTD29*
4,1,4,-0.2461,-0.4153,-0.4153,-0.2461,0.2461,0.4153,0.4153,0.2461,-0.2461,-0.4153,0.0*
%
%ADD29ROTATEDRECTD29*%

G04:AMPARAMS|DCode=30|XSize=0.84mm|YSize=0.26mm|CornerRadius=0.0325mm|HoleSize=0mm|Usage=FLASHONLY|Rotation=90.000|XOffset=0mm|YOffset=0mm|HoleType=Round|Shape=RoundedRectangle|*
%AMROUNDEDRECTD30*
21,1,0.8400,0.1950,0,0,90.0*
21,1,0.7750,0.2600,0,0,90.0*
1,1,0.0650,0.0975,0.3875*
1,1,0.0650,0.0975,-0.3875*
1,1,0.0650,-0.0975,-0.3875*
1,1,0.0650,-0.0975,0.3875*
%
%ADD30ROUNDEDRECTD30*%
G04:AMPARAMS|DCode=31|XSize=0.84mm|YSize=0.26mm|CornerRadius=0.0325mm|HoleSize=0mm|Usage=FLASHONLY|Rotation=180.000|XOffset=0mm|YOffset=0mm|HoleType=Round|Shape=RoundedRectangle|*
%AMROUNDEDRECTD31*
21,1,0.8400,0.1950,0,0,180.0*
21,1,0.7750,0.2600,0,0,180.0*
1,1,0.0650,-0.3875,0.0975*
1,1,0.0650,0.3875,0.0975*
1,1,0.0650,0.3875,-0.0975*
1,1,0.0650,-0.3875,-0.0975*
%
%ADD31ROUNDEDRECTD31*%
%ADD32R,1.7000X1.7000*%
%ADD33R,0.2600X0.8400*%
%ADD34R,0.2393X0.9654*%
G04:AMPARAMS|DCode=35|XSize=0.9654mm|YSize=0.2393mm|CornerRadius=0.1196mm|HoleSize=0mm|Usage=FLASHONLY|Rotation=90.000|XOffset=0mm|YOffset=0mm|HoleType=Round|Shape=RoundedRectangle|*
%AMROUNDEDRECTD35*
21,1,0.9654,0.0000,0,0,90.0*
21,1,0.7261,0.2393,0,0,90.0*
1,1,0.2393,0.0000,0.3630*
1,1,0.2393,0.0000,-0.3630*
1,1,0.2393,0.0000,-0.3630*
1,1,0.2393,0.0000,0.3630*
%
%ADD35ROUNDEDRECTD35*%
%ADD36R,0.8000X0.8000*%
%ADD37R,0.6000X0.5000*%
G04:AMPARAMS|DCode=38|XSize=0.55mm|YSize=0.5mm|CornerRadius=0.0625mm|HoleSize=0mm|Usage=FLASHONLY|Rotation=270.000|XOffset=0mm|YOffset=0mm|HoleType=Round|Shape=RoundedRectangle|*
%AMROUNDEDRECTD38*
21,1,0.5500,0.3750,0,0,270.0*
21,1,0.4250,0.5000,0,0,270.0*
1,1,0.1250,-0.1875,-0.2125*
1,1,0.1250,-0.1875,0.2125*
1,1,0.1250,0.1875,0.2125*
1,1,0.1250,0.1875,-0.2125*
%
%ADD38ROUNDEDRECTD38*%
G04:AMPARAMS|DCode=39|XSize=1.97mm|YSize=0.6mm|CornerRadius=0.075mm|HoleSize=0mm|Usage=FLASHONLY|Rotation=180.000|XOffset=0mm|YOffset=0mm|HoleType=Round|Shape=RoundedRectangle|*
%AMROUNDEDRECTD39*
21,1,1.9700,0.4500,0,0,180.0*
21,1,1.8200,0.6000,0,0,180.0*
1,1,0.1500,-0.9100,0.2250*
1,1,0.1500,0.9100,0.2250*
1,1,0.1500,0.9100,-0.2250*
1,1,0.1500,-0.9100,-0.2250*
%
%ADD39ROUNDEDRECTD39*%
%ADD40R,2.8000X1.0000*%
%ADD41R,1.7000X0.6000*%
G04:AMPARAMS|DCode=42|XSize=0.62mm|YSize=0.66mm|CornerRadius=0mm|HoleSize=0mm|Usage=FLASHONLY|Rotation=225.000|XOffset=0mm|YOffset=0mm|HoleType=Round|Shape=Rectangle|*
%AMROTATEDRECTD42*
4,1,4,-0.0141,0.4526,0.4526,-0.0141,0.0141,-0.4526,-0.4526,0.0141,-0.0141,0.4526,0.0*
%
%ADD42ROTATEDRECTD42*%

G04:AMPARAMS|DCode=43|XSize=0.9561mm|YSize=0.3125mm|CornerRadius=0.1562mm|HoleSize=0mm|Usage=FLASHONLY|Rotation=0.000|XOffset=0mm|YOffset=0mm|HoleType=Round|Shape=RoundedRectangle|*
%AMROUNDEDRECTD43*
21,1,0.9561,0.0000,0,0,0.0*
21,1,0.6436,0.3125,0,0,0.0*
1,1,0.3125,0.3218,0.0000*
1,1,0.3125,-0.3218,0.0000*
1,1,0.3125,-0.3218,0.0000*
1,1,0.3125,0.3218,0.0000*
%
%ADD43ROUNDEDRECTD43*%
%ADD44R,0.9561X0.3125*%
G04:AMPARAMS|DCode=45|XSize=1.24mm|YSize=0.55mm|CornerRadius=0.0688mm|HoleSize=0mm|Usage=FLASHONLY|Rotation=90.000|XOffset=0mm|YOffset=0mm|HoleType=Round|Shape=RoundedRectangle|*
%AMROUNDEDRECTD45*
21,1,1.2400,0.4125,0,0,90.0*
21,1,1.1025,0.5500,0,0,90.0*
1,1,0.1375,0.2063,0.5513*
1,1,0.1375,0.2063,-0.5513*
1,1,0.1375,-0.2063,-0.5513*
1,1,0.1375,-0.2063,0.5513*
%
%ADD45ROUNDEDRECTD45*%
%ADD46R,1.1000X1.4000*%
%ADD47R,0.8000X0.8000*%
%ADD48R,1.0000X0.7500*%
%ADD49R,0.6000X1.1500*%
%ADD50R,0.3000X1.1500*%
%ADD51R,0.5000X0.6000*%
%ADD52R,0.5400X0.5800*%
%ADD53R,0.5800X0.5400*%
%ADD54R,0.5725X0.5682*%
%ADD61P,5.2326X4X90.0*%
%ADD72R,1.7000X4.2500*%
%ADD84C,0.6500*%
G04:AMPARAMS|DCode=85|XSize=1mm|YSize=2.1mm|CornerRadius=0.5mm|HoleSize=0mm|Usage=FLASHONLY|Rotation=180.000|XOffset=0mm|YOffset=0mm|HoleType=Round|Shape=RoundedRectangle|*
%AMROUNDEDRECTD85*
21,1,1.0000,1.1000,0,0,180.0*
21,1,0.0000,2.1000,0,0,180.0*
1,1,1.0000,0.0000,0.5500*
1,1,1.0000,0.0000,0.5500*
1,1,1.0000,0.0000,-0.5500*
1,1,1.0000,0.0000,-0.5500*
%
%ADD85ROUNDEDRECTD85*%
G04:AMPARAMS|DCode=86|XSize=1mm|YSize=1.8mm|CornerRadius=0.5mm|HoleSize=0mm|Usage=FLASHONLY|Rotation=180.000|XOffset=0mm|YOffset=0mm|HoleType=Round|Shape=RoundedRectangle|*
%AMROUNDEDRECTD86*
21,1,1.0000,0.8000,0,0,180.0*
21,1,0.0000,1.8000,0,0,180.0*
1,1,1.0000,0.0000,0.4000*
1,1,1.0000,0.0000,0.4000*
1,1,1.0000,0.0000,-0.4000*
1,1,1.0000,0.0000,-0.4000*
%
%ADD86ROUNDEDRECTD86*%
%ADD88C,5.0000*%
%ADD89C,1.5080*%
%ADD90R,1.5080X1.5080*%
%ADD91C,0.6000*%
G36*
X169661Y31943D02*
X170150Y30673D01*
X169214Y29453D01*
X168454Y27618D01*
X168195Y25650D01*
Y24190D01*
X175800D01*
X183405D01*
Y25650D01*
X183146Y27618D01*
X182386Y29453D01*
X181450Y30673D01*
X181939Y31943D01*
X256060Y31942D01*
X256550Y30672D01*
X255614Y29453D01*
X254854Y27618D01*
X254595Y25650D01*
Y24190D01*
X262200D01*
X269805D01*
Y25650D01*
X269546Y27618D01*
X268786Y29453D01*
X267850Y30672D01*
X268340Y31942D01*
X330000Y31941D01*
X332161D01*
X336400Y31098D01*
X340393Y29444D01*
X343987Y27043D01*
X347043Y23987D01*
X349444Y20393D01*
X351098Y16400D01*
X351941Y12161D01*
Y10000D01*
Y-239964D01*
Y-242125D01*
X351098Y-246364D01*
X349444Y-250357D01*
X347043Y-253951D01*
X343987Y-257007D01*
X340393Y-259408D01*
X336400Y-261063D01*
X332161Y-261906D01*
X330002D01*
X329840Y-261938D01*
X-12158D01*
X-16397Y-261095D01*
X-20390Y-259441D01*
X-23983Y-257040D01*
X-27039Y-253983D01*
X-29441Y-250390D01*
X-31095Y-246397D01*
X-31938Y-242158D01*
Y-239996D01*
Y-200670D01*
X-18790D01*
Y-193130D01*
Y-185590D01*
X-31938D01*
Y-126170D01*
X-18790D01*
Y-118630D01*
Y-111090D01*
X-31938D01*
Y10003D01*
Y12164D01*
X-31095Y16404D01*
X-29441Y20397D01*
X-27039Y23990D01*
X-23983Y27046D01*
X-20390Y29448D01*
X-16396Y31102D01*
X-12158Y31945D01*
X-9997D01*
X169661Y31943D01*
D02*
G37*
%LPC*%
G36*
X151368Y24958D02*
X146368D01*
Y21208D01*
X151368D01*
Y24958D01*
D02*
G37*
G36*
X109712D02*
X104712D01*
Y21208D01*
X109712D01*
Y24958D01*
D02*
G37*
G36*
X99632D02*
X94632D01*
Y21208D01*
X99632D01*
Y24958D01*
D02*
G37*
G36*
X141288D02*
X136288D01*
Y21208D01*
X141288D01*
Y24958D01*
D02*
G37*
G36*
X60610Y19970D02*
X48610D01*
Y19560D01*
X47340Y18711D01*
X46715Y18970D01*
X44725D01*
X42888Y18209D01*
X41481Y16802D01*
X40720Y14965D01*
Y12975D01*
X41481Y11138D01*
X42888Y9731D01*
X44725Y8970D01*
X46715D01*
X47340Y9229D01*
X48610Y8381D01*
Y7970D01*
X60610D01*
Y19970D01*
D02*
G37*
G36*
X76150Y20510D02*
X72150D01*
Y16510D01*
X76150D01*
Y20510D01*
D02*
G37*
G36*
X67070D02*
X63070D01*
Y16510D01*
X67070D01*
Y20510D01*
D02*
G37*
G36*
X151368Y16128D02*
X146368D01*
Y12378D01*
X151368D01*
Y16128D01*
D02*
G37*
G36*
X141288D02*
X136288D01*
Y12378D01*
X141288D01*
Y16128D01*
D02*
G37*
G36*
X109712D02*
X104712D01*
Y12378D01*
X109712D01*
Y16128D01*
D02*
G37*
G36*
X99632D02*
X94632D01*
Y12378D01*
X99632D01*
Y16128D01*
D02*
G37*
G36*
X269805Y19110D02*
X264740D01*
Y10541D01*
X266003Y11064D01*
X267578Y12272D01*
X268786Y13848D01*
X269546Y15682D01*
X269805Y17650D01*
Y19110D01*
D02*
G37*
G36*
X183405D02*
X178340D01*
Y10541D01*
X179603Y11064D01*
X181178Y12272D01*
X182386Y13848D01*
X183146Y15682D01*
X183405Y17650D01*
Y19110D01*
D02*
G37*
G36*
X259660D02*
X254595D01*
Y17650D01*
X254854Y15682D01*
X255614Y13848D01*
X256822Y12272D01*
X258398Y11064D01*
X259660Y10541D01*
Y19110D01*
D02*
G37*
G36*
X173260D02*
X168195D01*
Y17650D01*
X168454Y15682D01*
X169214Y13848D01*
X170422Y12272D01*
X171998Y11064D01*
X173260Y10541D01*
Y19110D01*
D02*
G37*
G36*
X76150Y11430D02*
X72150D01*
Y7430D01*
X76150D01*
Y11430D01*
D02*
G37*
G36*
X67070D02*
X63070D01*
Y7430D01*
X67070D01*
Y11430D01*
D02*
G37*
G36*
X178340Y-7541D02*
Y-17610D01*
X183405D01*
Y-14650D01*
X183146Y-12682D01*
X182386Y-10847D01*
X181178Y-9272D01*
X179603Y-8064D01*
X178340Y-7541D01*
D02*
G37*
G36*
X264740D02*
Y-17610D01*
X269805D01*
Y-14650D01*
X269546Y-12682D01*
X268786Y-10847D01*
X267578Y-9272D01*
X266003Y-8064D01*
X264740Y-7541D01*
D02*
G37*
G36*
X173260D02*
X171998Y-8064D01*
X170422Y-9272D01*
X169214Y-10847D01*
X168454Y-12682D01*
X168195Y-14650D01*
Y-17610D01*
X173260D01*
Y-7541D01*
D02*
G37*
G36*
X259660D02*
X258398Y-8064D01*
X256822Y-9272D01*
X255614Y-10847D01*
X254854Y-12682D01*
X254595Y-14650D01*
Y-17610D01*
X259660D01*
Y-7541D01*
D02*
G37*
G36*
X2125Y27000D02*
X-2125D01*
X-6323Y26335D01*
X-10364Y25022D01*
X-14151Y23093D01*
X-17589Y20594D01*
X-20594Y17589D01*
X-23093Y14151D01*
X-25022Y10364D01*
X-26335Y6323D01*
X-27000Y2125D01*
Y-2125D01*
X-26335Y-6323D01*
X-25022Y-10364D01*
X-23093Y-14151D01*
X-20594Y-17589D01*
X-17589Y-20594D01*
X-14151Y-23093D01*
X-10364Y-25022D01*
X-6323Y-26335D01*
X-2125Y-27000D01*
X2125D01*
X6323Y-26335D01*
X10364Y-25022D01*
X14151Y-23093D01*
X17589Y-20594D01*
X20594Y-17589D01*
X23093Y-14151D01*
X25022Y-10364D01*
X26335Y-6323D01*
X27000Y-2125D01*
Y2125D01*
X26335Y6323D01*
X25022Y10364D01*
X23093Y14151D01*
X20594Y17589D01*
X17589Y20594D01*
X14151Y23093D01*
X10364Y25022D01*
X6323Y26335D01*
X2125Y27000D01*
D02*
G37*
G36*
X269805Y-22690D02*
X264740D01*
Y-32759D01*
X266003Y-32236D01*
X267578Y-31028D01*
X268786Y-29453D01*
X269546Y-27618D01*
X269805Y-25650D01*
Y-22690D01*
D02*
G37*
G36*
X183405D02*
X178340D01*
Y-32759D01*
X179603Y-32236D01*
X181178Y-31028D01*
X182386Y-29453D01*
X183146Y-27618D01*
X183405Y-25650D01*
Y-22690D01*
D02*
G37*
G36*
X259660D02*
X254595D01*
Y-25650D01*
X254854Y-27618D01*
X255614Y-29453D01*
X256822Y-31028D01*
X258398Y-32236D01*
X259660Y-32759D01*
Y-22690D01*
D02*
G37*
G36*
X173260D02*
X168195D01*
Y-25650D01*
X168454Y-27618D01*
X169214Y-29453D01*
X170422Y-31028D01*
X171998Y-32236D01*
X173260Y-32759D01*
Y-22690D01*
D02*
G37*
G36*
X59415Y-61040D02*
X57425D01*
X55588Y-61801D01*
X54181Y-63208D01*
X53420Y-65045D01*
Y-67035D01*
X54181Y-68872D01*
X55588Y-70279D01*
X57425Y-71040D01*
X59415D01*
X61252Y-70279D01*
X62659Y-68872D01*
X63420Y-67035D01*
Y-65045D01*
X62659Y-63208D01*
X61252Y-61801D01*
X59415Y-61040D01*
D02*
G37*
G36*
X83110Y4970D02*
X71110D01*
Y-7030D01*
X83110D01*
Y-5852D01*
X95172D01*
Y-8418D01*
X109172D01*
Y-5852D01*
X136828D01*
Y-8418D01*
X140706D01*
Y-81382D01*
X140920Y-82455D01*
X141527Y-83365D01*
X141748Y-83585D01*
X141354Y-84987D01*
X140569Y-85512D01*
X140193Y-86074D01*
X140141Y-86094D01*
X138768Y-86054D01*
X138340Y-85413D01*
X134852Y-81925D01*
X137394Y-79382D01*
X129899Y-71887D01*
X122687Y-79099D01*
X116337Y-85449D01*
X115354Y-84755D01*
X59804Y-29205D01*
Y-7301D01*
X60075Y-7030D01*
X68110D01*
Y4970D01*
X56110D01*
Y-3065D01*
X55401Y-3774D01*
X54279Y-3903D01*
X53775Y-3730D01*
X53110Y-3065D01*
Y4970D01*
X41110D01*
Y-7030D01*
X49145D01*
X49196Y-7081D01*
Y-32299D01*
X49410Y-33372D01*
X50017Y-34281D01*
X122112Y-106376D01*
X122185Y-106741D01*
X122891Y-107799D01*
X127813Y-112721D01*
X127353Y-113888D01*
X120675Y-120566D01*
X125196Y-125086D01*
X125196D01*
X126124Y-125953D01*
X126427Y-126406D01*
X127484Y-127112D01*
X127804Y-127176D01*
X128808Y-127560D01*
X129192Y-128563D01*
X129256Y-128884D01*
X129962Y-129941D01*
X131019Y-130648D01*
X131340Y-130711D01*
X132343Y-131096D01*
X132727Y-132099D01*
X132791Y-132420D01*
X133498Y-133477D01*
X134555Y-134183D01*
X134875Y-134247D01*
X135879Y-134631D01*
X136263Y-135635D01*
X136327Y-135955D01*
X137033Y-137012D01*
X138090Y-137719D01*
X138411Y-137783D01*
X139414Y-138167D01*
X139798Y-139170D01*
X139862Y-139491D01*
X140162Y-139939D01*
X139825Y-141417D01*
X139776Y-141474D01*
X138372Y-142878D01*
X137611Y-144716D01*
Y-146705D01*
X138372Y-148543D01*
X139779Y-149950D01*
X141616Y-150711D01*
X143606D01*
X145443Y-149950D01*
X145870Y-149522D01*
X147140Y-150048D01*
Y-151307D01*
X147044Y-152480D01*
X145055D01*
X143218Y-153241D01*
X141811Y-154648D01*
X141050Y-156485D01*
Y-158475D01*
X141811Y-160312D01*
X143218Y-161719D01*
X145055Y-162480D01*
X147045D01*
X148882Y-161719D01*
X150289Y-160312D01*
X151050Y-158475D01*
Y-156485D01*
X151038Y-156457D01*
X151927Y-155568D01*
X152535Y-154659D01*
X152748Y-153586D01*
Y-147120D01*
X156383Y-143484D01*
X157163Y-142987D01*
X157480Y-142840D01*
X158323Y-143231D01*
X159984Y-144891D01*
X160197Y-145211D01*
X163393Y-148407D01*
X163232Y-148794D01*
Y-150783D01*
X163994Y-152621D01*
X165400Y-154027D01*
X167238Y-154788D01*
X167896D01*
X174901Y-161793D01*
X182113Y-154581D01*
X176569Y-149036D01*
X176866Y-147538D01*
X177674Y-147204D01*
X177880Y-146998D01*
X178280Y-147013D01*
X179290Y-147383D01*
X179911Y-148882D01*
X181318Y-150289D01*
X183155Y-151050D01*
X185145D01*
X186982Y-150289D01*
X188389Y-148882D01*
X189150Y-147045D01*
Y-146789D01*
X190323Y-146303D01*
X195936Y-151916D01*
Y-158140D01*
X192740D01*
Y-170140D01*
X204150D01*
Y-173115D01*
X204125Y-173140D01*
X192740D01*
Y-185140D01*
X204740D01*
Y-178823D01*
X205211D01*
X206284Y-178610D01*
X207193Y-178002D01*
X208115Y-177080D01*
X213650D01*
Y-167580D01*
X204740D01*
Y-158140D01*
X201544D01*
Y-150754D01*
X201330Y-149682D01*
X200723Y-148772D01*
X188874Y-136923D01*
X189423Y-135955D01*
X189557Y-135810D01*
X191495D01*
X193332Y-135049D01*
X194739Y-133642D01*
X195500Y-131805D01*
Y-129815D01*
X194739Y-127978D01*
X193332Y-126571D01*
X191495Y-125810D01*
X190890D01*
X190032Y-124669D01*
X190297Y-123791D01*
X190691Y-123640D01*
X191012Y-123577D01*
X192069Y-122870D01*
X192775Y-121813D01*
X193023Y-120566D01*
X192775Y-119319D01*
X192069Y-118261D01*
X191274Y-117466D01*
X192083Y-116480D01*
X192328Y-116643D01*
X193401Y-116856D01*
X214785D01*
X216168Y-118239D01*
X218005Y-119000D01*
X219995D01*
X221832Y-118239D01*
X223239Y-116832D01*
X223251Y-116804D01*
X225000D01*
X225075Y-116819D01*
X226139Y-117872D01*
X226105Y-118111D01*
X225497Y-118517D01*
X223065Y-120949D01*
X223037Y-120938D01*
X221048D01*
X219210Y-121699D01*
X217803Y-123105D01*
X217042Y-124943D01*
Y-126932D01*
X217803Y-128770D01*
X219210Y-130176D01*
X221048Y-130938D01*
X223037D01*
X224875Y-130176D01*
X226281Y-128770D01*
X227042Y-126932D01*
Y-126434D01*
X227250Y-125250D01*
X228216Y-125250D01*
X236200D01*
Y-133080D01*
X244355D01*
X244720Y-134350D01*
X244686Y-134520D01*
X244750Y-134842D01*
Y-140750D01*
X253750D01*
Y-149750D01*
X255551D01*
X255803Y-151020D01*
X254328Y-151631D01*
X252921Y-153038D01*
X252160Y-154875D01*
Y-156865D01*
X252251Y-157084D01*
X251545Y-158140D01*
X251160D01*
Y-170140D01*
X262570D01*
Y-173115D01*
X262545Y-173140D01*
X251160D01*
Y-185140D01*
X263160D01*
Y-178823D01*
X263631D01*
X264704Y-178610D01*
X265613Y-178002D01*
X266535Y-177080D01*
X272070D01*
Y-167580D01*
X263160D01*
Y-158140D01*
X262775D01*
X262069Y-157084D01*
X262160Y-156865D01*
Y-154875D01*
X261399Y-153038D01*
X259992Y-151631D01*
X258517Y-151020D01*
X258769Y-149750D01*
X263250D01*
Y-140750D01*
X263250D01*
Y-134252D01*
X264509Y-133865D01*
X264520Y-133865D01*
X269797Y-139143D01*
X270707Y-139750D01*
X271780Y-139964D01*
X296019D01*
X313037Y-156983D01*
X313947Y-157590D01*
X315020Y-157804D01*
X319125D01*
X319360Y-158682D01*
X320616Y-160858D01*
X322392Y-162634D01*
X324568Y-163890D01*
X326994Y-164540D01*
X329506D01*
X331932Y-163890D01*
X334108Y-162634D01*
X335884Y-160858D01*
X337140Y-158682D01*
X337790Y-156256D01*
Y-153744D01*
X337140Y-151318D01*
X335884Y-149142D01*
X334108Y-147366D01*
X331932Y-146110D01*
X329506Y-145460D01*
X326994D01*
X324568Y-146110D01*
X322392Y-147366D01*
X320616Y-149142D01*
X319360Y-151318D01*
X319125Y-152196D01*
X316181D01*
X299163Y-135177D01*
X298253Y-134570D01*
X297180Y-134356D01*
X273704D01*
X273467Y-134020D01*
X274125Y-132750D01*
X280250D01*
Y-128979D01*
X280793Y-128871D01*
X281702Y-128263D01*
X281977Y-127988D01*
X282005Y-128000D01*
X283995D01*
X285832Y-127239D01*
X287239Y-125832D01*
X288000Y-123995D01*
Y-122005D01*
X287627Y-121105D01*
X288420Y-119919D01*
X289655Y-119835D01*
X289655D01*
Y-119835D01*
X290926Y-119677D01*
X291911Y-120085D01*
X293900D01*
X295738Y-119324D01*
X297144Y-117917D01*
X297906Y-116080D01*
Y-114091D01*
X297144Y-112253D01*
X295738Y-110846D01*
X294573Y-110364D01*
X294825Y-109094D01*
X319598D01*
X320616Y-110858D01*
X322392Y-112634D01*
X324568Y-113890D01*
X326994Y-114540D01*
X329506D01*
X331932Y-113890D01*
X334108Y-112634D01*
X335884Y-110858D01*
X337140Y-108682D01*
X337790Y-106256D01*
Y-103744D01*
X337140Y-101318D01*
X335884Y-99142D01*
X334108Y-97366D01*
X331932Y-96110D01*
X329506Y-95460D01*
X326994D01*
X324568Y-96110D01*
X322392Y-97366D01*
X320616Y-99142D01*
X319360Y-101318D01*
X318779Y-103486D01*
X289655D01*
Y-101335D01*
X289395D01*
X288556Y-100065D01*
X289000Y-98995D01*
Y-97005D01*
X288239Y-95168D01*
X287345Y-94274D01*
X286750Y-93250D01*
Y-91304D01*
X289500D01*
X290573Y-91090D01*
X291483Y-90483D01*
X317371Y-64594D01*
X321460D01*
X321731Y-64540D01*
X337790D01*
Y-45460D01*
X318710D01*
Y-58986D01*
X316210D01*
X315137Y-59200D01*
X314227Y-59807D01*
X288339Y-85696D01*
X286750D01*
Y-74750D01*
X277250D01*
X277250Y-74750D01*
Y-74750D01*
X275980Y-74908D01*
X274995Y-74500D01*
X273005D01*
X271168Y-75261D01*
X269992Y-76437D01*
X268968Y-76409D01*
X268550Y-76273D01*
X268399Y-75908D01*
X266992Y-74501D01*
X265155Y-73740D01*
X263165D01*
X261328Y-74501D01*
X259921Y-75908D01*
X259160Y-77745D01*
Y-79595D01*
X259100Y-79710D01*
X258771Y-80059D01*
X258139Y-80588D01*
X257475Y-80456D01*
X257250D01*
Y-83325D01*
X255750D01*
Y-80456D01*
X255525D01*
X254407Y-80678D01*
X254000Y-80950D01*
X253593Y-80678D01*
X252475Y-80456D01*
X252250D01*
Y-83325D01*
X250750D01*
Y-80456D01*
X250525D01*
X249407Y-80678D01*
X248459Y-81311D01*
X247826Y-82259D01*
X247604Y-83377D01*
Y-86502D01*
X250473D01*
Y-88002D01*
X247604D01*
Y-90954D01*
X247494Y-91230D01*
X246513Y-92155D01*
X239377D01*
X238470Y-92335D01*
X238020Y-92635D01*
X236947Y-92233D01*
X236750Y-92073D01*
Y-85750D01*
X236750D01*
X236455Y-85309D01*
X237000Y-83995D01*
Y-82005D01*
X236239Y-80168D01*
X234832Y-78761D01*
X232995Y-78000D01*
X231005D01*
X229168Y-78761D01*
X227761Y-80168D01*
X227000Y-82005D01*
Y-83995D01*
X227544Y-85309D01*
X227250Y-85750D01*
X227250D01*
Y-94489D01*
X225983Y-95017D01*
X225073Y-94410D01*
X224000Y-94196D01*
X223251D01*
X223239Y-94168D01*
X221832Y-92761D01*
X219995Y-92000D01*
X218005D01*
X216168Y-92761D01*
X214761Y-94168D01*
X214749Y-94196D01*
X184117D01*
X183044Y-94410D01*
X182089Y-93520D01*
X181462Y-92583D01*
X180405Y-91877D01*
X180085Y-91813D01*
X179081Y-91429D01*
X178697Y-90425D01*
X178633Y-90105D01*
X177927Y-89048D01*
X176870Y-88341D01*
X176549Y-88277D01*
X175546Y-87893D01*
X175161Y-86890D01*
X175098Y-86569D01*
X174391Y-85512D01*
X174056Y-85288D01*
X173838Y-83710D01*
X178173Y-79374D01*
X210195D01*
X211471Y-79120D01*
X212552Y-78397D01*
X218768Y-72182D01*
X219490Y-71101D01*
X219744Y-69825D01*
Y-61646D01*
X219669Y-61268D01*
Y-58015D01*
X219421Y-56768D01*
X218715Y-55711D01*
X218554Y-55604D01*
X218584Y-54213D01*
X219330Y-53784D01*
X219891Y-54034D01*
X220163Y-54216D01*
X221410Y-54464D01*
X222657Y-54216D01*
X223715Y-53509D01*
X224421Y-52452D01*
X224669Y-51205D01*
Y-43944D01*
X224421Y-42697D01*
X223715Y-41640D01*
X222657Y-40933D01*
X221410Y-40685D01*
X221104Y-40746D01*
X219834Y-39742D01*
Y-38285D01*
X224049D01*
X225325Y-38031D01*
X226407Y-37308D01*
X228081Y-35635D01*
X229351Y-36154D01*
X229564Y-37227D01*
X230172Y-38137D01*
X233017Y-40983D01*
X233927Y-41590D01*
X234600Y-41724D01*
Y-44370D01*
X235100D01*
Y-53010D01*
X244600D01*
Y-43510D01*
X243600D01*
Y-34370D01*
X244572Y-33650D01*
X248000D01*
Y-20400D01*
X248944D01*
X250874Y-19601D01*
X252351Y-18124D01*
X253150Y-16194D01*
Y-14106D01*
X252351Y-12176D01*
X250874Y-10699D01*
X248944Y-9900D01*
X246856D01*
X244926Y-10699D01*
X243449Y-12176D01*
X242852Y-13618D01*
X242818Y-13632D01*
X241574Y-13384D01*
Y-12355D01*
X240813Y-10518D01*
X239406Y-9111D01*
X237569Y-8350D01*
X235580D01*
X233742Y-9111D01*
X232335Y-10518D01*
X231574Y-12355D01*
Y-14345D01*
X232335Y-16182D01*
X233033Y-16880D01*
X232507Y-18150D01*
X224631D01*
X224556Y-17774D01*
X223833Y-16693D01*
X222774Y-15633D01*
X221693Y-14911D01*
X220417Y-14657D01*
X212583D01*
X211307Y-14911D01*
X210226Y-15633D01*
X209167Y-16693D01*
X208444Y-17774D01*
X208369Y-18150D01*
X205267D01*
X204741Y-16880D01*
X205443Y-16178D01*
X206204Y-14340D01*
Y-12351D01*
X205443Y-10513D01*
X204037Y-9106D01*
X202199Y-8345D01*
X200210D01*
X198372Y-9106D01*
X196966Y-10513D01*
X196204Y-12351D01*
Y-12849D01*
X194934Y-13102D01*
X194551Y-12176D01*
X193074Y-10699D01*
X191144Y-9900D01*
X189056D01*
X187126Y-10699D01*
X185649Y-12176D01*
X184850Y-14106D01*
Y-16194D01*
X185649Y-18124D01*
X187126Y-19601D01*
X189056Y-20400D01*
X190000D01*
Y-33650D01*
X190000D01*
X190490Y-34370D01*
Y-43510D01*
X189490D01*
Y-53010D01*
X198990D01*
Y-44370D01*
X199490D01*
Y-41968D01*
X199528Y-41960D01*
X200438Y-41353D01*
X203253Y-38537D01*
X203861Y-37627D01*
X204075Y-36555D01*
Y-33650D01*
X208166D01*
Y-43639D01*
X208076Y-44091D01*
Y-47574D01*
X208151Y-47951D01*
Y-51205D01*
X208399Y-52452D01*
X209106Y-53509D01*
X209165Y-53549D01*
X208780Y-54819D01*
X208214D01*
Y-60954D01*
X208076Y-61646D01*
Y-67730D01*
X207140Y-68666D01*
X173754D01*
X172478Y-68920D01*
X171397Y-69643D01*
X162603Y-78436D01*
X162374Y-78778D01*
X158323Y-82829D01*
X157480Y-83220D01*
X157163Y-83073D01*
X156383Y-82576D01*
X152249Y-78441D01*
X151192Y-77735D01*
X149944Y-77487D01*
X148697Y-77735D01*
X147640Y-78441D01*
X147584Y-78525D01*
X146314Y-78140D01*
Y-8418D01*
X150828D01*
Y3082D01*
X136828D01*
Y-244D01*
X109172D01*
Y3082D01*
X95172D01*
Y-244D01*
X83110D01*
Y4970D01*
D02*
G37*
G36*
X329506Y-70460D02*
X326994D01*
X324568Y-71110D01*
X322392Y-72366D01*
X320616Y-74142D01*
X319360Y-76318D01*
X318710Y-78744D01*
Y-81256D01*
X319360Y-83682D01*
X320616Y-85858D01*
X322392Y-87634D01*
X324568Y-88890D01*
X326994Y-89540D01*
X329506D01*
X331932Y-88890D01*
X334108Y-87634D01*
X335884Y-85858D01*
X337140Y-83682D01*
X337790Y-81256D01*
Y-78744D01*
X337140Y-76318D01*
X335884Y-74142D01*
X334108Y-72366D01*
X331932Y-71110D01*
X329506Y-70460D01*
D02*
G37*
G36*
X30052Y-99796D02*
X18928D01*
X17859Y-100009D01*
X16954Y-100614D01*
X16272Y-100681D01*
X16152Y-100561D01*
X14314Y-99800D01*
X12325D01*
X10487Y-100561D01*
X9081Y-101968D01*
X8320Y-103805D01*
Y-105795D01*
X9081Y-107632D01*
X10487Y-109039D01*
X12325Y-109800D01*
X14314D01*
X16152Y-109039D01*
X16272Y-108919D01*
X16954Y-108986D01*
X17859Y-109591D01*
X18928Y-109804D01*
X30052D01*
X31121Y-109591D01*
X32026Y-108986D01*
X32631Y-108081D01*
X32844Y-107013D01*
Y-102587D01*
X32631Y-101519D01*
X32026Y-100614D01*
X31121Y-100009D01*
X30052Y-99796D01*
D02*
G37*
G36*
X49653Y-108746D02*
X46630D01*
Y-111760D01*
X52929D01*
X52740Y-110809D01*
X52015Y-109725D01*
X50931Y-109000D01*
X49653Y-108746D01*
D02*
G37*
G36*
X41550D02*
X38528D01*
X37249Y-109000D01*
X36165Y-109725D01*
X35440Y-110809D01*
X35251Y-111760D01*
X41550D01*
Y-108746D01*
D02*
G37*
G36*
X290Y-111090D02*
X-13710D01*
Y-116090D01*
X290D01*
Y-111090D01*
D02*
G37*
G36*
X30052Y-118796D02*
X18928D01*
X17859Y-119009D01*
X16954Y-119614D01*
X16272Y-119681D01*
X16152Y-119561D01*
X14315Y-118800D01*
X12325D01*
X10488Y-119561D01*
X9081Y-120968D01*
X8320Y-122805D01*
Y-124795D01*
X9081Y-126632D01*
X10488Y-128039D01*
X12325Y-128800D01*
X14315D01*
X16152Y-128039D01*
X16272Y-127919D01*
X16954Y-127986D01*
X17859Y-128591D01*
X18928Y-128804D01*
X30052D01*
X31121Y-128591D01*
X32026Y-127986D01*
X32631Y-127081D01*
X32844Y-126012D01*
Y-121587D01*
X32631Y-120519D01*
X32026Y-119614D01*
X31121Y-119009D01*
X30052Y-118796D01*
D02*
G37*
G36*
X52929Y-116840D02*
X46630D01*
Y-119854D01*
X49653D01*
X50931Y-119600D01*
X52015Y-118875D01*
X52740Y-117791D01*
X52929Y-116840D01*
D02*
G37*
G36*
X41550D02*
X35251D01*
X35440Y-117791D01*
X36165Y-118875D01*
X37249Y-119600D01*
X38528Y-119854D01*
X41550D01*
Y-116840D01*
D02*
G37*
G36*
X290Y-121170D02*
X-13710D01*
Y-126170D01*
X290D01*
Y-121170D01*
D02*
G37*
G36*
X330790Y-120245D02*
Y-127460D01*
X338005D01*
X337643Y-126109D01*
X336316Y-123811D01*
X334439Y-121934D01*
X332141Y-120607D01*
X330790Y-120245D01*
D02*
G37*
G36*
X325710Y-120245D02*
X324359Y-120607D01*
X322061Y-121934D01*
X320184Y-123811D01*
X318857Y-126109D01*
X318495Y-127460D01*
X325710D01*
Y-120245D01*
D02*
G37*
G36*
X28290Y-131590D02*
X19790D01*
Y-134590D01*
X28290D01*
Y-131590D01*
D02*
G37*
G36*
X14710D02*
X6210D01*
Y-134590D01*
X14710D01*
Y-131590D01*
D02*
G37*
G36*
X338005Y-132540D02*
X330790D01*
Y-139755D01*
X332141Y-139393D01*
X334439Y-138066D01*
X336316Y-136189D01*
X337643Y-133891D01*
X338005Y-132540D01*
D02*
G37*
G36*
X325710D02*
X318495D01*
X318857Y-133891D01*
X320184Y-136189D01*
X322061Y-138066D01*
X324359Y-139393D01*
X325710Y-139755D01*
Y-132540D01*
D02*
G37*
G36*
X60663Y-131331D02*
X42463D01*
X41390Y-131545D01*
X40480Y-132153D01*
X39872Y-133062D01*
X39659Y-134135D01*
Y-138635D01*
X39872Y-139708D01*
X40480Y-140618D01*
X41390Y-141226D01*
X42463Y-141439D01*
X60663D01*
X61736Y-141226D01*
X62645Y-140618D01*
X63253Y-139708D01*
X63467Y-138635D01*
Y-134135D01*
X63253Y-133062D01*
X62645Y-132153D01*
X61736Y-131545D01*
X60663Y-131331D01*
D02*
G37*
G36*
X28290Y-139670D02*
X19790D01*
Y-142670D01*
X28290D01*
Y-139670D01*
D02*
G37*
G36*
X14710D02*
X6210D01*
Y-142670D01*
X14710D01*
Y-139670D01*
D02*
G37*
G36*
X53293Y-144021D02*
X53242Y-144031D01*
X42463D01*
X41390Y-144245D01*
X40480Y-144853D01*
X39872Y-145762D01*
X39659Y-146835D01*
Y-147119D01*
X37882D01*
Y-146205D01*
X28158D01*
X27750Y-145104D01*
Y-144630D01*
X6750D01*
Y-144630D01*
X5969Y-145152D01*
X5265Y-144860D01*
X3275D01*
X1438Y-145621D01*
X31Y-147028D01*
X-730Y-148865D01*
Y-150855D01*
X31Y-152692D01*
X1438Y-154099D01*
X3275Y-154860D01*
X5265D01*
X6394Y-154392D01*
X6750Y-154630D01*
Y-154630D01*
X27750D01*
X28157Y-155731D01*
Y-156029D01*
X27750Y-157130D01*
X6750D01*
Y-159011D01*
X982D01*
X292Y-158321D01*
X-1545Y-157560D01*
X-3535D01*
X-5372Y-158321D01*
X-6779Y-159728D01*
X-7540Y-161565D01*
Y-163555D01*
X-6779Y-165392D01*
X-5372Y-166799D01*
X-3535Y-167560D01*
X-1545D01*
X292Y-166799D01*
X1412Y-165679D01*
X6750D01*
Y-167130D01*
X27750D01*
Y-166031D01*
X28158Y-164930D01*
X37882D01*
Y-163423D01*
X39659D01*
Y-164035D01*
X39872Y-165108D01*
X40480Y-166018D01*
X41390Y-166625D01*
X42463Y-166839D01*
X60663D01*
X61736Y-166625D01*
X62645Y-166018D01*
X63253Y-165108D01*
X63467Y-164035D01*
Y-159535D01*
X63253Y-158462D01*
X62645Y-157552D01*
X61736Y-156945D01*
X60663Y-156731D01*
X53344D01*
X53293Y-156721D01*
X53242Y-156731D01*
X42463D01*
X42343Y-156755D01*
X37882D01*
Y-153787D01*
X41182D01*
X41390Y-153926D01*
X42463Y-154139D01*
X60663D01*
X61736Y-153926D01*
X62645Y-153318D01*
X63253Y-152408D01*
X63467Y-151335D01*
Y-146835D01*
X63253Y-145762D01*
X62645Y-144853D01*
X61736Y-144245D01*
X60663Y-144031D01*
X53344D01*
X53293Y-144021D01*
D02*
G37*
G36*
X110063Y-131331D02*
X91863D01*
X90790Y-131545D01*
X89880Y-132153D01*
X89272Y-133062D01*
X89059Y-134135D01*
Y-137474D01*
X80567Y-145965D01*
X79960Y-146875D01*
X79746Y-147948D01*
Y-198120D01*
X79960Y-199193D01*
X80567Y-200103D01*
X87887Y-207423D01*
X88797Y-208030D01*
X89450Y-208160D01*
X89772Y-208983D01*
X89843Y-209286D01*
X89840Y-209380D01*
X88872Y-210258D01*
X87355Y-209630D01*
X85365D01*
X83528Y-210391D01*
X82121Y-211798D01*
X81360Y-213635D01*
Y-215625D01*
X82121Y-217462D01*
X83528Y-218869D01*
X85365Y-219630D01*
X87355D01*
X87383Y-219618D01*
X88187Y-220423D01*
X88851Y-220866D01*
X88643Y-222129D01*
X88640Y-222136D01*
X78781D01*
X76464Y-219819D01*
Y-205740D01*
X76250Y-204667D01*
X75643Y-203757D01*
X71662Y-199777D01*
X70752Y-199169D01*
X70740Y-199166D01*
Y-195670D01*
X65105D01*
X64984Y-195548D01*
X64074Y-194941D01*
X63001Y-194727D01*
X43752D01*
X42679Y-194941D01*
X41769Y-195548D01*
X40148Y-197170D01*
X28950D01*
Y-215170D01*
X43950D01*
Y-201298D01*
X44914Y-200335D01*
X61340D01*
Y-205470D01*
X69425D01*
X70856Y-206901D01*
Y-220980D01*
X71070Y-222053D01*
X71677Y-222963D01*
X75637Y-226923D01*
X76301Y-227366D01*
X76093Y-228629D01*
X76090Y-228636D01*
X70740D01*
Y-226330D01*
X61340D01*
Y-228426D01*
X59950D01*
Y-219170D01*
X44950D01*
Y-237170D01*
X59950D01*
Y-234034D01*
X61340D01*
Y-236130D01*
X70740D01*
Y-234244D01*
X88527D01*
X89121Y-235400D01*
X102164D01*
X102021Y-235185D01*
X101496Y-234008D01*
X102283Y-232830D01*
X102560Y-231440D01*
X102283Y-230050D01*
X101572Y-228985D01*
X101426Y-228567D01*
Y-227813D01*
X101572Y-227395D01*
X102283Y-226330D01*
X102560Y-224940D01*
X102283Y-223550D01*
X101572Y-222485D01*
X101426Y-222067D01*
Y-221313D01*
X101572Y-220895D01*
X102283Y-219830D01*
X102560Y-218440D01*
X102283Y-217050D01*
X101572Y-215985D01*
X101426Y-215567D01*
Y-214813D01*
X101572Y-214395D01*
X102283Y-213330D01*
X102560Y-211940D01*
X102283Y-210550D01*
X101496Y-209372D01*
X101426Y-209325D01*
Y-208055D01*
X101496Y-208008D01*
X102283Y-206830D01*
X102560Y-205440D01*
X102283Y-204050D01*
X102098Y-203772D01*
X102490Y-202502D01*
X102490D01*
X102490Y-202502D01*
Y-195378D01*
X95168D01*
X94897Y-195324D01*
X92609D01*
X91244Y-193959D01*
Y-180758D01*
X92463Y-179539D01*
X110063D01*
X111136Y-179326D01*
X112045Y-178718D01*
X112653Y-177808D01*
X112867Y-176735D01*
Y-172235D01*
X112653Y-171162D01*
X112045Y-170252D01*
X111136Y-169645D01*
X110063Y-169431D01*
X91863D01*
X90790Y-169645D01*
X89880Y-170252D01*
X89272Y-171162D01*
X89059Y-172235D01*
Y-175012D01*
X86624Y-177447D01*
X85951Y-177323D01*
X85354Y-176979D01*
Y-149109D01*
X87824Y-146639D01*
X88134Y-146689D01*
X89059Y-147200D01*
Y-151335D01*
X89272Y-152408D01*
X89880Y-153318D01*
X90790Y-153926D01*
X91863Y-154139D01*
X110063D01*
X111136Y-153926D01*
X112045Y-153318D01*
X113276Y-153648D01*
X113410Y-153795D01*
Y-163560D01*
X122810D01*
Y-153760D01*
X121444D01*
Y-152348D01*
X121190Y-151072D01*
X120468Y-149990D01*
X120421Y-149944D01*
X120570Y-149585D01*
Y-147595D01*
X119809Y-145758D01*
X118402Y-144351D01*
X116565Y-143590D01*
X114575D01*
X112738Y-144351D01*
X112219Y-144870D01*
X112045Y-144853D01*
X111136Y-144245D01*
X110063Y-144031D01*
X92228D01*
X91716Y-143107D01*
X91667Y-142796D01*
X93024Y-141439D01*
X110063D01*
X111136Y-141226D01*
X112045Y-140618D01*
X112653Y-139708D01*
X112867Y-138635D01*
Y-134135D01*
X112653Y-133062D01*
X112045Y-132153D01*
X111136Y-131545D01*
X110063Y-131331D01*
D02*
G37*
G36*
X60663Y-169431D02*
X42463D01*
X41390Y-169645D01*
X40480Y-170252D01*
X39872Y-171162D01*
X39659Y-172235D01*
Y-176735D01*
X39872Y-177808D01*
X40480Y-178718D01*
X41390Y-179326D01*
X42463Y-179539D01*
X60663D01*
X61736Y-179326D01*
X62645Y-178718D01*
X63253Y-177808D01*
X63467Y-176735D01*
Y-172235D01*
X63253Y-171162D01*
X62645Y-170252D01*
X61736Y-169645D01*
X60663Y-169431D01*
D02*
G37*
G36*
X228945Y-150870D02*
X226955D01*
X225118Y-151631D01*
X223711Y-153038D01*
X222950Y-154875D01*
Y-156865D01*
X223041Y-157084D01*
X222335Y-158140D01*
X221950D01*
Y-170140D01*
X233360D01*
Y-173115D01*
X233335Y-173140D01*
X221950D01*
Y-185140D01*
X233950D01*
Y-178823D01*
X234421D01*
X235494Y-178610D01*
X236403Y-178002D01*
X237325Y-177080D01*
X242860D01*
Y-167580D01*
X233950D01*
Y-158140D01*
X233565D01*
X232859Y-157084D01*
X232950Y-156865D01*
Y-154875D01*
X232189Y-153038D01*
X230782Y-151631D01*
X228945Y-150870D01*
D02*
G37*
G36*
X290Y-185590D02*
X-13710D01*
Y-190590D01*
X290D01*
Y-185590D01*
D02*
G37*
G36*
X27750Y-169630D02*
X6750D01*
Y-179630D01*
X15906D01*
Y-197827D01*
X15360Y-198236D01*
X14246Y-197849D01*
X13523Y-196768D01*
X12620Y-195865D01*
Y-194585D01*
X11859Y-192748D01*
X10452Y-191341D01*
X8615Y-190580D01*
X6625D01*
X4788Y-191341D01*
X3381Y-192748D01*
X2620Y-194585D01*
Y-196575D01*
X3381Y-198412D01*
X4788Y-199819D01*
X6625Y-200580D01*
X6943D01*
X7189Y-200880D01*
Y-204180D01*
X7391Y-205194D01*
X7965Y-206054D01*
X8826Y-206629D01*
X9840Y-206831D01*
X12640D01*
X13655Y-206629D01*
X14514Y-206054D01*
X15965D01*
X16825Y-206629D01*
X17840Y-206831D01*
X20640D01*
X21655Y-206629D01*
X22515Y-206054D01*
X23089Y-205194D01*
X23291Y-204180D01*
Y-200880D01*
X23089Y-199865D01*
X22574Y-199095D01*
Y-179630D01*
X27750D01*
Y-169630D01*
D02*
G37*
G36*
X290Y-195670D02*
X-13710D01*
Y-200670D01*
X290D01*
Y-195670D01*
D02*
G37*
G36*
X232542Y-199607D02*
X228417D01*
X227369Y-199816D01*
X226480Y-200410D01*
X225886Y-201299D01*
X225677Y-202348D01*
Y-213372D01*
X225886Y-214421D01*
X226480Y-215310D01*
X227369Y-215904D01*
X228417Y-216113D01*
X232542D01*
X233591Y-215904D01*
X234480Y-215310D01*
X235074Y-214421D01*
X235283Y-213372D01*
Y-202348D01*
X235074Y-201299D01*
X234480Y-200410D01*
X233591Y-199816D01*
X232542Y-199607D01*
D02*
G37*
G36*
X212090Y-192271D02*
X176530D01*
X175750Y-192426D01*
X175088Y-192868D01*
X175088Y-192868D01*
X171278Y-196678D01*
X171278Y-196678D01*
X170836Y-197340D01*
X170681Y-198120D01*
Y-209820D01*
X170836Y-210600D01*
X171278Y-211262D01*
X171940Y-211704D01*
X172720Y-211859D01*
X182869D01*
X182900Y-211865D01*
X184130D01*
X184161Y-211859D01*
X194299D01*
X194330Y-211865D01*
X201517Y-211865D01*
X202431Y-213135D01*
Y-213360D01*
X202431Y-213360D01*
X202586Y-214140D01*
X203028Y-214802D01*
X203028Y-214802D01*
X205568Y-217342D01*
X206230Y-217784D01*
X207010Y-217939D01*
X214630D01*
X214630Y-217939D01*
X215410Y-217784D01*
X216072Y-217342D01*
X216072Y-217342D01*
X217342Y-216072D01*
X217784Y-215410D01*
X217939Y-214630D01*
Y-198120D01*
X217939Y-198120D01*
X217784Y-197340D01*
X217342Y-196678D01*
X217342Y-196678D01*
X213532Y-192868D01*
X213532Y-192868D01*
X212870Y-192426D01*
X212090Y-192271D01*
D02*
G37*
G36*
X126725Y-176610D02*
X124735D01*
X122898Y-177371D01*
X121491Y-178778D01*
X120730Y-180615D01*
Y-182605D01*
X121002Y-183260D01*
X120920Y-184530D01*
X120920Y-184530D01*
X120920Y-184530D01*
Y-193930D01*
X122211D01*
Y-195308D01*
X122052D01*
X120662Y-195584D01*
X119484Y-196372D01*
X118697Y-197550D01*
X118420Y-198940D01*
X118697Y-200330D01*
X119408Y-201395D01*
X119554Y-201813D01*
Y-202567D01*
X119408Y-202985D01*
X118697Y-204050D01*
X118420Y-205440D01*
X118697Y-206830D01*
X119408Y-207895D01*
X119554Y-208313D01*
Y-209067D01*
X119408Y-209485D01*
X118697Y-210550D01*
X118420Y-211940D01*
X118697Y-213330D01*
X119408Y-214395D01*
X119554Y-214813D01*
Y-215567D01*
X119408Y-215985D01*
X118697Y-217050D01*
X118420Y-218440D01*
X118697Y-219830D01*
X119408Y-220895D01*
X119554Y-221313D01*
Y-222067D01*
X119408Y-222485D01*
X118697Y-223550D01*
X118420Y-224940D01*
X118697Y-226330D01*
X119408Y-227395D01*
X119554Y-227813D01*
Y-228567D01*
X119408Y-228985D01*
X118697Y-230050D01*
X118420Y-231440D01*
X118697Y-232830D01*
X119408Y-233895D01*
X119554Y-234313D01*
Y-235067D01*
X119408Y-235485D01*
X118697Y-236550D01*
X118420Y-237940D01*
X118697Y-239330D01*
X119484Y-240508D01*
X120662Y-241296D01*
X122052Y-241572D01*
X128488D01*
X129878Y-241296D01*
X131057Y-240508D01*
X131844Y-239330D01*
X132121Y-237940D01*
X131844Y-236550D01*
X131132Y-235485D01*
X130987Y-235067D01*
Y-234313D01*
X131132Y-233895D01*
X131844Y-232830D01*
X132121Y-231440D01*
X131844Y-230050D01*
X131152Y-229014D01*
X131314Y-228386D01*
X131655Y-227744D01*
X135970D01*
Y-229595D01*
X136731Y-231432D01*
X138138Y-232839D01*
X139975Y-233600D01*
X141965D01*
X143802Y-232839D01*
X145209Y-231432D01*
X145970Y-229595D01*
Y-227605D01*
X145209Y-225768D01*
X143802Y-224361D01*
X141965Y-223600D01*
X139976D01*
X139555Y-223220D01*
X139293Y-222957D01*
X139186Y-222886D01*
X139095Y-222804D01*
X138859Y-221272D01*
X139620Y-219435D01*
Y-217445D01*
X139575Y-217336D01*
X140615Y-216580D01*
X141524Y-217188D01*
X142598Y-217401D01*
X145205D01*
X145217Y-217430D01*
X146624Y-218836D01*
X148462Y-219597D01*
X150451D01*
X152288Y-218836D01*
X153695Y-217430D01*
X154456Y-215592D01*
Y-213603D01*
X153695Y-211765D01*
X152288Y-210359D01*
X150451Y-209597D01*
X150365D01*
X149801Y-208327D01*
X150438Y-206788D01*
Y-204799D01*
X149677Y-202961D01*
X148271Y-201555D01*
X146433Y-200794D01*
X144444D01*
X142606Y-201555D01*
X141348Y-202813D01*
X131390D01*
X131040Y-201660D01*
X131132Y-201395D01*
X131844Y-200330D01*
X132121Y-198940D01*
X131844Y-197550D01*
X131057Y-196372D01*
X129878Y-195584D01*
X128879Y-195386D01*
Y-193930D01*
X130720D01*
Y-184530D01*
X130720Y-184530D01*
X130720D01*
X130458Y-183260D01*
X130730Y-182605D01*
Y-180615D01*
X129969Y-178778D01*
X128562Y-177371D01*
X126725Y-176610D01*
D02*
G37*
G36*
X17065Y-209728D02*
X13415D01*
X12371Y-209935D01*
X11486Y-210527D01*
X10895Y-211411D01*
X10688Y-212455D01*
Y-215605D01*
X10895Y-216649D01*
X11486Y-217533D01*
X11498Y-217651D01*
X11001Y-218148D01*
X10240Y-219985D01*
Y-221975D01*
X11001Y-223812D01*
X12408Y-225219D01*
X14245Y-225980D01*
X16235D01*
X18072Y-225219D01*
X19479Y-223812D01*
X20240Y-221975D01*
Y-219985D01*
X19479Y-218148D01*
X18982Y-217651D01*
X18994Y-217533D01*
X19585Y-216649D01*
X19792Y-215605D01*
Y-212455D01*
X19585Y-211411D01*
X18994Y-210527D01*
X18109Y-209935D01*
X17065Y-209728D01*
D02*
G37*
G36*
X102164Y-240480D02*
X98250D01*
Y-242123D01*
X98928D01*
X100528Y-241804D01*
X101885Y-240898D01*
X102164Y-240480D01*
D02*
G37*
G36*
X93170D02*
X89255D01*
X89534Y-240898D01*
X90891Y-241804D01*
X92492Y-242123D01*
X93170D01*
Y-240480D01*
D02*
G37*
G36*
X199390Y-221481D02*
X198610Y-221636D01*
X197948Y-222078D01*
X197948Y-222078D01*
X192868Y-227158D01*
X192426Y-227820D01*
X192271Y-228600D01*
Y-241300D01*
X192271Y-241300D01*
X192426Y-242080D01*
X192868Y-242742D01*
X192868Y-242742D01*
X199218Y-249092D01*
X199880Y-249534D01*
X200660Y-249689D01*
X250190Y-249689D01*
X250190Y-249689D01*
X250970Y-249534D01*
X251632Y-249092D01*
X256712Y-244012D01*
X257154Y-243350D01*
X257309Y-242570D01*
X257309Y-230090D01*
X257154Y-229310D01*
X256712Y-228648D01*
X256560Y-228547D01*
Y-228090D01*
X255467D01*
X255270Y-228051D01*
X246426D01*
X246360Y-228038D01*
X239529D01*
Y-224790D01*
X239374Y-224010D01*
X238932Y-223348D01*
X238270Y-222906D01*
X237490Y-222751D01*
X227330D01*
X227330Y-222751D01*
X226550Y-222906D01*
X225888Y-223348D01*
X224706Y-223277D01*
X224302Y-223007D01*
X223520Y-222852D01*
Y-231560D01*
X218440D01*
Y-222852D01*
X217658Y-223007D01*
X216591Y-223721D01*
X216458Y-223734D01*
X214802Y-222078D01*
X214140Y-221636D01*
X213360Y-221481D01*
X199390D01*
X199390Y-221481D01*
D02*
G37*
G36*
X322125Y-203000D02*
X317875D01*
X313678Y-203665D01*
X309636Y-204978D01*
X305849Y-206908D01*
X302411Y-209406D01*
X299405Y-212411D01*
X296908Y-215849D01*
X294978Y-219636D01*
X293665Y-223678D01*
X293000Y-227875D01*
Y-232125D01*
X293665Y-236322D01*
X294978Y-240364D01*
X296908Y-244151D01*
X299405Y-247589D01*
X302411Y-250594D01*
X305849Y-253092D01*
X309636Y-255022D01*
X313678Y-256335D01*
X317875Y-257000D01*
X322125D01*
X326323Y-256335D01*
X330364Y-255022D01*
X334151Y-253092D01*
X337589Y-250594D01*
X340594Y-247589D01*
X343092Y-244151D01*
X345022Y-240364D01*
X346335Y-236322D01*
X347000Y-232125D01*
Y-227875D01*
X346335Y-223678D01*
X345022Y-219636D01*
X343092Y-215849D01*
X340594Y-212411D01*
X337589Y-209406D01*
X334151Y-206908D01*
X330364Y-204978D01*
X326323Y-203665D01*
X322125Y-203000D01*
D02*
G37*
%LPD*%
G36*
X215900Y-198120D02*
Y-214630D01*
X214630Y-215900D01*
X207010D01*
X204470Y-213360D01*
X204470Y-212725D01*
Y-209826D01*
X194330Y-209826D01*
Y-209820D01*
X184130D01*
Y-209826D01*
X183358D01*
X182900D01*
Y-209820D01*
X172720D01*
Y-198120D01*
X176530Y-194310D01*
X212090D01*
X215900Y-198120D01*
D02*
G37*
G36*
Y-226060D02*
Y-238760D01*
X217170Y-240030D01*
X224790D01*
X226060Y-238760D01*
Y-226060D01*
X227330Y-224790D01*
X237490D01*
Y-230077D01*
X246360D01*
Y-230090D01*
X255270D01*
X255270Y-242570D01*
X250190Y-247650D01*
X200660Y-247650D01*
X194310Y-241300D01*
Y-228600D01*
X199390Y-223520D01*
X213360D01*
X215900Y-226060D01*
D02*
G37*
D12*
X251500Y-85492D02*
X251530Y-85462D01*
X256470D02*
X256500Y-85492D01*
X251500Y-87252D02*
Y-85492D01*
X256500Y-87252D02*
Y-85492D01*
X13320Y-123800D02*
X23981D01*
X13319Y-104800D02*
X24490D01*
X23981Y-123800D02*
X24236Y-123546D01*
X51563Y-149085D02*
X53293Y-147355D01*
X51563Y-161785D02*
X53293Y-160055D01*
X4385Y-149745D02*
X17135D01*
X4270Y-149860D02*
X4385Y-149745D01*
X-2540Y-162560D02*
X-2325Y-162345D01*
X17035D01*
X17250Y-162130D01*
X17135Y-149745D02*
X17250Y-149630D01*
X15240Y-220980D02*
Y-214030D01*
X7620Y-195580D02*
X11165Y-199125D01*
Y-202455D02*
X11240Y-202530D01*
X11165Y-202455D02*
Y-199125D01*
X7620Y-195580D02*
Y-195580D01*
X17250Y-174630D02*
X17510D01*
X19240Y-176360D01*
Y-202530D02*
Y-176360D01*
X125730Y-189140D02*
Y-181610D01*
X125545Y-189505D02*
X125820Y-189230D01*
X125545Y-198670D02*
Y-189505D01*
X125275Y-198940D02*
X125545Y-198670D01*
X125270Y-198940D02*
X125275D01*
X115570Y-149808D02*
X118110Y-152348D01*
Y-158660D02*
Y-152348D01*
X101210Y-148837D02*
X115323D01*
X241300Y-127780D02*
X241603Y-127477D01*
X249233D01*
X249536Y-127173D01*
X249500Y-127209D02*
Y-126571D01*
X248020Y-134520D02*
X249500Y-136000D01*
X232000Y-120500D02*
X232000Y-120500D01*
X232000Y-120500D02*
X232000Y-120500D01*
X258250Y-144750D02*
X258500Y-145000D01*
X249500Y-136000D02*
X249518Y-135982D01*
X249500Y-126571D02*
X251500Y-124571D01*
X249518Y-135982D02*
Y-127191D01*
X251500Y-124571D02*
Y-118748D01*
X251500Y-118748D01*
X257160Y-164140D02*
Y-155870D01*
X210195Y-76040D02*
X216410Y-69825D01*
Y-61646D01*
X166090Y-86742D02*
X176792Y-76040D01*
X208521Y-72000D02*
X211410Y-69111D01*
Y-61646D01*
X176792Y-76040D02*
X210195D01*
X173754Y-72000D02*
X208521D01*
X164960Y-80794D02*
X173754Y-72000D01*
X128580Y-93050D02*
X129242Y-93712D01*
X129904Y-96060D02*
Y-94236D01*
X129897Y-94229D02*
X129904Y-94236D01*
X224049Y-34951D02*
X226270Y-32730D01*
X216500Y-34951D02*
X224049D01*
X226270Y-32730D02*
Y-26130D01*
X24236Y-123546D02*
X24490Y-123800D01*
X227950Y-164140D02*
Y-155870D01*
X236574Y-13851D02*
X241270Y-18547D01*
Y-24170D02*
Y-18547D01*
Y-24170D02*
X243000Y-25900D01*
X196730Y-17819D02*
X201204Y-13345D01*
X195000Y-25900D02*
X196730Y-24170D01*
Y-17819D01*
X45720Y13970D02*
X54610D01*
X135982Y-92742D02*
X136052Y-92811D01*
X129904Y-96060D02*
X134728Y-100884D01*
X128435Y-90978D02*
Y-90335D01*
X135982Y-92742D02*
Y-87770D01*
X136052Y-95137D02*
Y-92811D01*
X130041Y-81829D02*
X135982Y-87770D01*
X136052Y-95137D02*
X138263Y-97349D01*
X128580Y-93050D02*
Y-91122D01*
X128435Y-90978D02*
X128580Y-91122D01*
X123691Y-85591D02*
X128435Y-90335D01*
X130041Y-81829D02*
Y-79241D01*
X167570Y-149126D02*
Y-147869D01*
X162555Y-142853D02*
X167570Y-147869D01*
Y-149126D02*
X168232Y-149788D01*
X169167Y-149581D02*
X174026Y-154439D01*
X168434Y-149581D02*
X169167D01*
X174026Y-154439D02*
X174759D01*
X33020Y-160089D02*
X42410D01*
X50337Y-150453D02*
X50930Y-149860D01*
X33613Y-150453D02*
X50337D01*
X33020Y-151046D02*
X33613Y-150453D01*
X32390Y-160719D02*
X33020Y-160089D01*
X17250Y-162130D02*
X18661Y-160719D01*
X32390D01*
X18666Y-151046D02*
X33020D01*
X17250Y-149630D02*
X18666Y-151046D01*
X221476Y-25876D02*
X221500Y-25900D01*
X211524Y-25876D02*
Y-19050D01*
X221476Y-25876D02*
Y-19050D01*
X220417Y-17991D02*
X221476Y-19050D01*
X211524D02*
X212583Y-17991D01*
X220417D01*
X211500Y-25900D02*
X211524Y-25876D01*
X226270Y-26130D02*
X226500Y-25900D01*
X216500Y-34951D02*
Y-25900D01*
X216410Y-47574D02*
Y-44091D01*
X216500Y-44001D01*
Y-34951D01*
X211410Y-47574D02*
Y-44091D01*
X211500Y-44001D01*
Y-25900D01*
X210000Y-205570D02*
X211480Y-207050D01*
Y-207860D02*
Y-207050D01*
X198915Y-206045D02*
X199390Y-205570D01*
X189230Y-206520D02*
X189705Y-206045D01*
X124961Y-85060D02*
Y-84321D01*
D14*
X274748Y-110500D02*
X274969Y-110721D01*
Y-116763D02*
Y-110721D01*
X266500Y-87252D02*
Y-81518D01*
X264160Y-79178D02*
Y-78740D01*
Y-79178D02*
X266500Y-81518D01*
X274000Y-79500D02*
X282000D01*
X82550Y-198120D02*
Y-147948D01*
X94113Y-136385D01*
X198740Y-164140D02*
Y-150754D01*
X73660Y-220980D02*
X77620Y-224940D01*
X95710D01*
X73660Y-220980D02*
Y-205740D01*
X69679Y-201759D02*
X73660Y-205740D01*
X67229Y-201759D02*
X69679D01*
X66040Y-200570D02*
X67229Y-201759D01*
X66040Y-231230D02*
X66250Y-231440D01*
X95710D01*
X100963Y-149085D02*
X101210Y-148837D01*
X222042Y-125938D02*
X227480Y-120500D01*
X232000D01*
X219000Y-114000D02*
X225000D01*
X227000Y-112000D01*
X218948Y-114052D02*
X219000Y-114000D01*
X193401Y-114052D02*
X218948D01*
X271780Y-137160D02*
X297180D01*
X315020Y-155000D01*
X328250D01*
X266500Y-131880D02*
Y-118748D01*
Y-131880D02*
X271780Y-137160D01*
X326960Y-106290D02*
X328250Y-105000D01*
X284790Y-106290D02*
X326960D01*
X284000Y-105500D02*
X284790Y-106290D01*
X274748Y-105500D02*
X284000D01*
X280587Y-100195D02*
X282782Y-98000D01*
X275053Y-100195D02*
X280587D01*
X274748Y-100500D02*
X275053Y-100195D01*
X282782Y-98000D02*
X284000D01*
X180233Y-100884D02*
X184117Y-97000D01*
X224000D01*
X180232Y-100884D02*
X180233D01*
X282000Y-88500D02*
X289500D01*
X277239Y-93261D02*
X282000Y-88500D01*
X289500D02*
X316210Y-61790D01*
X258500Y-136000D02*
Y-128500D01*
X284906Y-115085D02*
X292906D01*
X284000Y-114500D02*
X284000Y-114500D01*
X224000Y-97000D02*
X227000Y-100000D01*
X187304Y-107955D02*
X193401Y-114052D01*
X223500Y-105500D02*
X223553Y-105447D01*
X243199D02*
X243252Y-105500D01*
X216500Y-106000D02*
X217106Y-105394D01*
X223764D01*
X223553Y-105447D02*
X243199D01*
X210500Y-100000D02*
X216500Y-106000D01*
X188188Y-100000D02*
X210500D01*
X183768Y-104420D02*
X188188Y-100000D01*
X207210Y-106290D02*
X207500Y-106000D01*
X200000Y-106290D02*
X207210D01*
X231500Y-100000D02*
X232000Y-99500D01*
X227000Y-100000D02*
X231500D01*
X232000Y-99500D02*
X233000Y-100500D01*
X227000Y-112000D02*
X231500D01*
X233000Y-110500D01*
X243252D01*
X232000Y-120500D02*
X233290Y-121790D01*
X187304Y-107955D02*
X187304D01*
X232000Y-90500D02*
Y-83000D01*
X258500Y-145000D02*
Y-136000D01*
Y-128500D02*
X259000Y-128000D01*
X258500Y-145000D02*
X258500Y-145000D01*
X233000Y-100500D02*
X243252D01*
X321460Y-61790D02*
X328250Y-55000D01*
X316210Y-61790D02*
X321460D01*
X276689Y-95500D02*
X277239Y-94950D01*
X274748Y-95500D02*
X276689D01*
X277239Y-94950D02*
Y-93261D01*
X279720Y-126280D02*
X283000Y-123000D01*
X277220Y-126280D02*
X279720D01*
X275500Y-128000D02*
X277220Y-126280D01*
X256500Y-125050D02*
Y-118748D01*
Y-125050D02*
X259000Y-127550D01*
Y-127973D02*
Y-127550D01*
X143510Y-81382D02*
Y-3048D01*
Y-81382D02*
X148870Y-86742D01*
X113792Y-3048D02*
X143510D01*
X79128D02*
X113792D01*
X176697Y-128711D02*
X198740Y-150754D01*
X47110Y-1030D02*
X52000Y-5920D01*
Y-32299D02*
Y-5920D01*
Y-32299D02*
X127656Y-107955D01*
X57000Y-30366D02*
X126636Y-100002D01*
X57000Y-6140D02*
X62110Y-1030D01*
X57000Y-30366D02*
Y-6140D01*
X145262Y-205617D02*
X145438Y-205794D01*
X125447Y-205617D02*
X145262D01*
X126775Y-100002D02*
X131192Y-104420D01*
X131192D01*
X126636Y-100002D02*
X126775D01*
X235000Y-39000D02*
X238730D01*
X239100Y-39370D01*
X232155Y-36154D02*
X235000Y-39000D01*
X232155Y-36154D02*
Y-26554D01*
X231500Y-25900D02*
X232155Y-26554D01*
X201271Y-36555D02*
Y-26129D01*
X194990Y-39370D02*
X198455D01*
X201271Y-36555D01*
X142598Y-214597D02*
X149456D01*
X139940Y-211940D02*
X142598Y-214597D01*
X125270Y-211940D02*
X139940D01*
X125270Y-218440D02*
X134620D01*
X146050Y-157480D02*
X149944Y-153586D01*
Y-145315D01*
X142611Y-145711D02*
Y-145644D01*
X148870Y-139385D02*
Y-139318D01*
X142611Y-145644D02*
X148870Y-139385D01*
X149944Y-145315D02*
X152405Y-142853D01*
X183289Y-145189D02*
X184150Y-146050D01*
X169626Y-135782D02*
Y-135782D01*
Y-135782D02*
X173981Y-140138D01*
X183289Y-145189D02*
Y-142374D01*
X173981Y-142104D02*
X174842Y-142965D01*
X173981Y-142104D02*
Y-140138D01*
X173161Y-132247D02*
X183289Y-142374D01*
X137310Y-224940D02*
X140970Y-228600D01*
X125270Y-224940D02*
X137310D01*
X125270Y-205440D02*
X125447Y-205617D01*
X157480Y-130810D02*
X157582D01*
X166090Y-139318D01*
X157480Y-113030D02*
Y-109494D01*
X141799Y-93813D02*
X157480Y-109494D01*
X94113Y-136385D02*
X100963D01*
X98713Y-176735D02*
X100963Y-174485D01*
X88440Y-179596D02*
X91301Y-176735D01*
X88440Y-195120D02*
Y-179596D01*
X91301Y-176735D02*
X98713D01*
X64090Y-198420D02*
X66140Y-200470D01*
X55510Y-231230D02*
X66040D01*
X52450Y-228170D02*
X55510Y-231230D01*
X41363Y-199920D02*
X43752Y-197531D01*
X41200Y-199920D02*
X41363D01*
X43752Y-197531D02*
X63001D01*
X36450Y-204670D02*
X41200Y-199920D01*
X63001Y-197531D02*
X63890Y-198420D01*
X64090D01*
X36450Y-206170D02*
Y-204670D01*
X185867Y-130810D02*
X190500D01*
X180232Y-125176D02*
X185867Y-130810D01*
X90170Y-218440D02*
X95710D01*
X86360Y-214630D02*
X90170Y-218440D01*
X82550Y-198120D02*
X89870Y-205440D01*
X95710D01*
X91448Y-198128D02*
X94897D01*
X95710Y-198940D01*
X88440Y-195120D02*
X91448Y-198128D01*
X263631Y-176019D02*
X267320Y-172330D01*
X260281Y-176019D02*
X263631D01*
X257160Y-179140D02*
X260281Y-176019D01*
X234421D02*
X238110Y-172330D01*
X231071Y-176019D02*
X234421D01*
X227950Y-179140D02*
X231071Y-176019D01*
X205211D02*
X208900Y-172330D01*
X201861Y-176019D02*
X205211D01*
X198740Y-179140D02*
X201861Y-176019D01*
X127656Y-107955D02*
Y-107955D01*
X239100Y-47510D02*
Y-38870D01*
X194990Y-47510D02*
Y-38870D01*
X201271Y-26129D02*
X201500Y-25900D01*
X194240Y-48260D02*
X194990Y-47510D01*
X239100D02*
X239850Y-48260D01*
D21*
X241300Y-136380D02*
D03*
Y-127780D02*
D03*
X189230Y-215120D02*
D03*
Y-206520D02*
D03*
X251460Y-224790D02*
D03*
Y-233390D02*
D03*
X177800Y-215120D02*
D03*
Y-206520D02*
D03*
D22*
X44090Y-114300D02*
D03*
X24490Y-123800D02*
D03*
Y-104800D02*
D03*
D23*
X19240Y-202530D02*
D03*
X11240D02*
D03*
D24*
X15240Y-214030D02*
D03*
D25*
X216500Y-106000D02*
D03*
X207500D02*
D03*
X266500Y-128000D02*
D03*
X275500D02*
D03*
X249500Y-136000D02*
D03*
X258500D02*
D03*
X258500Y-145000D02*
D03*
X249500D02*
D03*
X239850Y-48260D02*
D03*
X248850D02*
D03*
X194240D02*
D03*
X185240D02*
D03*
D26*
X232000Y-111500D02*
D03*
Y-120500D02*
D03*
X284905Y-106085D02*
D03*
Y-115085D02*
D03*
X232000Y-90500D02*
D03*
Y-99500D02*
D03*
X282000Y-88500D02*
D03*
Y-79500D02*
D03*
X267320Y-172330D02*
D03*
Y-163330D02*
D03*
X238110Y-172330D02*
D03*
Y-163330D02*
D03*
X208900Y-172330D02*
D03*
Y-163330D02*
D03*
D27*
X127656Y-107955D02*
D03*
X131192Y-104420D02*
D03*
X134728Y-100884D02*
D03*
X138263Y-97349D02*
D03*
X141799Y-93813D02*
D03*
X145334Y-90278D02*
D03*
X148870Y-86742D02*
D03*
X152405Y-83207D02*
D03*
X187304Y-118105D02*
D03*
X183768Y-121640D02*
D03*
X180232Y-125176D02*
D03*
X176697Y-128711D02*
D03*
X173161Y-132247D02*
D03*
X169626Y-135782D02*
D03*
X166090Y-139318D02*
D03*
X162555Y-142853D02*
D03*
D28*
Y-83207D02*
D03*
X166090Y-86742D02*
D03*
X169626Y-90278D02*
D03*
X173161Y-93813D02*
D03*
X176697Y-97349D02*
D03*
X180232Y-100884D02*
D03*
X183768Y-104420D02*
D03*
X187304Y-107955D02*
D03*
X152405Y-142853D02*
D03*
X148870Y-139318D02*
D03*
X145334Y-135782D02*
D03*
X141799Y-132247D02*
D03*
X138263Y-128711D02*
D03*
X134728Y-125176D02*
D03*
X131192Y-121640D02*
D03*
D29*
X127656Y-118105D02*
D03*
D30*
X251500Y-87252D02*
D03*
X256500D02*
D03*
X261500D02*
D03*
X266500D02*
D03*
Y-118748D02*
D03*
X261500D02*
D03*
X256500D02*
D03*
D31*
X243252Y-110500D02*
D03*
Y-105500D02*
D03*
Y-100500D02*
D03*
Y-95500D02*
D03*
X274748D02*
D03*
Y-100500D02*
D03*
Y-105500D02*
D03*
Y-110500D02*
D03*
D32*
X259000Y-103000D02*
D03*
D33*
X251500Y-118748D02*
D03*
D34*
X211410Y-61646D02*
D03*
D35*
X216410D02*
D03*
X221410D02*
D03*
Y-47574D02*
D03*
X216410D02*
D03*
X211410D02*
D03*
D36*
X257160Y-164140D02*
D03*
Y-179140D02*
D03*
X227950D02*
D03*
Y-164140D02*
D03*
X198740Y-179140D02*
D03*
Y-164140D02*
D03*
D37*
X199390Y-205570D02*
D03*
Y-216070D02*
D03*
X242570Y-233850D02*
D03*
Y-223350D02*
D03*
D38*
X198120Y-236220D02*
D03*
X189120D02*
D03*
D39*
X100963Y-174485D02*
D03*
Y-161785D02*
D03*
Y-149085D02*
D03*
Y-136385D02*
D03*
X51563D02*
D03*
Y-149085D02*
D03*
Y-161785D02*
D03*
Y-174485D02*
D03*
D40*
X-16250Y-118630D02*
D03*
Y-193130D02*
D03*
D41*
X17250Y-137130D02*
D03*
Y-149630D02*
D03*
Y-162130D02*
D03*
Y-174630D02*
D03*
D42*
X130041Y-79241D02*
D03*
X123959Y-73159D02*
D03*
X123691Y-85591D02*
D03*
X117609Y-79509D02*
D03*
X174759Y-154439D02*
D03*
X180841Y-160521D02*
D03*
D43*
X125270Y-198940D02*
D03*
Y-205440D02*
D03*
Y-211940D02*
D03*
Y-218440D02*
D03*
Y-224940D02*
D03*
Y-231440D02*
D03*
Y-237940D02*
D03*
X95710D02*
D03*
Y-231440D02*
D03*
Y-224940D02*
D03*
Y-218440D02*
D03*
Y-211940D02*
D03*
Y-205440D02*
D03*
D44*
Y-198940D02*
D03*
D45*
X211480Y-207860D02*
D03*
X230480D02*
D03*
Y-231560D02*
D03*
X220980D02*
D03*
X211480D02*
D03*
D46*
X52450Y-206170D02*
D03*
Y-228170D02*
D03*
X36450D02*
D03*
Y-206170D02*
D03*
D47*
X47110Y-1030D02*
D03*
X62110D02*
D03*
X77110D02*
D03*
X69610Y13970D02*
D03*
X54610D02*
D03*
D48*
X102172Y-2668D02*
D03*
Y18668D02*
D03*
X143828D02*
D03*
Y-2668D02*
D03*
D49*
X187000Y-25900D02*
D03*
X251000D02*
D03*
X195000D02*
D03*
X243000D02*
D03*
D50*
X201500D02*
D03*
X206500D02*
D03*
X211500D02*
D03*
X216500D02*
D03*
X221500D02*
D03*
X226500D02*
D03*
X231500D02*
D03*
X236500D02*
D03*
D51*
X249600Y-39370D02*
D03*
X239100D02*
D03*
X184490D02*
D03*
X194990D02*
D03*
D52*
X118110Y-166460D02*
D03*
Y-158660D02*
D03*
X66040Y-223430D02*
D03*
Y-231230D02*
D03*
Y-208370D02*
D03*
Y-200570D02*
D03*
D53*
X118020Y-189230D02*
D03*
X125820D02*
D03*
D54*
X33020Y-151046D02*
D03*
Y-160089D02*
D03*
D61*
X157480Y-113030D02*
D03*
D72*
X110490Y-218440D02*
D03*
D84*
X190100Y-15150D02*
D03*
X247900D02*
D03*
D85*
X175800Y-20150D02*
D03*
X262200D02*
D03*
D86*
X175800Y21650D02*
D03*
X262200D02*
D03*
D88*
X320000Y-230000D02*
D03*
X0Y0D02*
D03*
D89*
X328250Y-155000D02*
D03*
Y-80000D02*
D03*
Y-130000D02*
D03*
Y-105000D02*
D03*
D90*
Y-55000D02*
D03*
D91*
X274969Y-116763D02*
D03*
X250000Y-75000D02*
D03*
X264160Y-78740D02*
D03*
X274000Y-79500D02*
D03*
X339500Y-230000D02*
D03*
X333789Y-216211D02*
D03*
X320000Y-210500D02*
D03*
X306211Y-216211D02*
D03*
X300500Y-230000D02*
D03*
X306211Y-243789D02*
D03*
X320000Y-249500D02*
D03*
X333789Y-243789D02*
D03*
X13789Y-13789D02*
D03*
X-13789D02*
D03*
Y13789D02*
D03*
X13789D02*
D03*
X0Y-19500D02*
D03*
X-19500Y0D02*
D03*
X0Y19500D02*
D03*
X19500Y0D02*
D03*
X25000Y-25000D02*
D03*
X13320Y-123800D02*
D03*
X13319Y-104800D02*
D03*
X4270Y-149860D02*
D03*
X-2540Y-162560D02*
D03*
X58420Y-66040D02*
D03*
X15240Y-220980D02*
D03*
X100000Y-250000D02*
D03*
X222042Y-125938D02*
D03*
X219000Y-114000D02*
D03*
X300000Y-150000D02*
D03*
X284000Y-98000D02*
D03*
X300000Y-100000D02*
D03*
X325000Y-175000D02*
D03*
X275000Y-167380D02*
D03*
X300000Y-50000D02*
D03*
X275000Y-25000D02*
D03*
X259000Y-103000D02*
D03*
X292906Y-115085D02*
D03*
X219000Y-97000D02*
D03*
X223764Y-105394D02*
D03*
X200000Y-106290D02*
D03*
X232000Y-83000D02*
D03*
X283000Y-123000D02*
D03*
X249536Y-127173D02*
D03*
X259000Y-128000D02*
D03*
X125000Y-25000D02*
D03*
X100000Y-50000D02*
D03*
X75000Y-25000D02*
D03*
X227000Y-61000D02*
D03*
X200000Y-125000D02*
D03*
X145438Y-205794D02*
D03*
X129242Y-93712D02*
D03*
X134620Y-218440D02*
D03*
X275000Y-225000D02*
D03*
X25000Y-75000D02*
D03*
X75000D02*
D03*
X300000Y-200000D02*
D03*
X250000D02*
D03*
X50000Y-250000D02*
D03*
X0D02*
D03*
X100000Y-100000D02*
D03*
X50000D02*
D03*
X0D02*
D03*
X184000Y0D02*
D03*
X234000D02*
D03*
X300000D02*
D03*
X150000Y-50000D02*
D03*
X50000D02*
D03*
X0D02*
D03*
X139700Y-113030D02*
D03*
X157480Y-130810D02*
D03*
Y-113030D02*
D03*
X175260D02*
D03*
X157480Y-95250D02*
D03*
X257160Y-155870D02*
D03*
X227950D02*
D03*
X236574Y-13350D02*
D03*
X201204Y-13345D02*
D03*
X45720Y13970D02*
D03*
X115570Y-148590D02*
D03*
X142611Y-145711D02*
D03*
X168232Y-149788D02*
D03*
X184150Y-146050D02*
D03*
X174842Y-142965D02*
D03*
X125730Y-181610D02*
D03*
X7620Y-195580D02*
D03*
X140970Y-228600D02*
D03*
X149456Y-214597D02*
D03*
X146050Y-157480D02*
D03*
X190500Y-130810D02*
D03*
X86360Y-214630D02*
D03*
X184150Y-198120D02*
D03*
X220980Y-243840D02*
D03*
X204470Y-198120D02*
D03*
M02*
