G04*
G04 #@! TF.GenerationSoftware,Altium Limited,Altium Designer,25.2.1 (25)*
G04*
G04 Layer_Color=16711935*
%FSLAX44Y44*%
%MOMM*%
G71*
G04*
G04 #@! TF.SameCoordinates,073125F1-E53F-4E54-89B7-3FE71556A111*
G04*
G04*
G04 #@! TF.FilePolarity,Negative*
G04*
G01*
G75*
%ADD81C,5.2032*%
%ADD82C,1.7112*%
%ADD83R,1.7112X1.7112*%
%ADD84C,0.6500*%
G04:AMPARAMS|DCode=85|XSize=1mm|YSize=2.1mm|CornerRadius=0.5mm|HoleSize=0mm|Usage=FLASHONLY|Rotation=180.000|XOffset=0mm|YOffset=0mm|HoleType=Round|Shape=RoundedRectangle|*
%AMROUNDEDRECTD85*
21,1,1.0000,1.1000,0,0,180.0*
21,1,0.0000,2.1000,0,0,180.0*
1,1,1.0000,0.0000,0.5500*
1,1,1.0000,0.0000,0.5500*
1,1,1.0000,0.0000,-0.5500*
1,1,1.0000,0.0000,-0.5500*
%
%ADD85ROUNDEDRECTD85*%
G04:AMPARAMS|DCode=86|XSize=1mm|YSize=1.8mm|CornerRadius=0.5mm|HoleSize=0mm|Usage=FLASHONLY|Rotation=180.000|XOffset=0mm|YOffset=0mm|HoleType=Round|Shape=RoundedRectangle|*
%AMROUNDEDRECTD86*
21,1,1.0000,0.8000,0,0,180.0*
21,1,0.0000,1.8000,0,0,180.0*
1,1,1.0000,0.0000,0.4000*
1,1,1.0000,0.0000,0.4000*
1,1,1.0000,0.0000,-0.4000*
1,1,1.0000,0.0000,-0.4000*
%
%ADD86ROUNDEDRECTD86*%
%ADD87C,0.8032*%
D81*
X320000Y-230000D02*
D03*
X0Y0D02*
D03*
D82*
X328250Y-155000D02*
D03*
Y-80000D02*
D03*
Y-130000D02*
D03*
Y-105000D02*
D03*
D83*
Y-55000D02*
D03*
D84*
X190100Y-15150D02*
D03*
X247900D02*
D03*
D85*
X175800Y-20150D02*
D03*
X262200D02*
D03*
D86*
X175800Y21650D02*
D03*
X262200D02*
D03*
D87*
X339500Y-230000D02*
D03*
X333789Y-216211D02*
D03*
X320000Y-210500D02*
D03*
X306211Y-216211D02*
D03*
X300500Y-230000D02*
D03*
X306211Y-243789D02*
D03*
X320000Y-249500D02*
D03*
X333789Y-243789D02*
D03*
X13789Y-13789D02*
D03*
X-13789D02*
D03*
Y13789D02*
D03*
X13789D02*
D03*
X0Y-19500D02*
D03*
X-19500Y0D02*
D03*
X0Y19500D02*
D03*
X19500Y0D02*
D03*
M02*
