G04*
G04 #@! TF.GenerationSoftware,Altium Limited,Altium Designer,25.2.1 (25)*
G04*
G04 Layer_Color=8388736*
%FSLAX44Y44*%
%MOMM*%
G71*
G04*
G04 #@! TF.SameCoordinates,073125F1-E53F-4E54-89B7-3FE71556A111*
G04*
G04*
G04 #@! TF.FilePolarity,Negative*
G04*
G01*
G75*
G04:AMPARAMS|DCode=27|XSize=0.2393mm|YSize=0.9354mm|CornerRadius=0.1196mm|HoleSize=0mm|Usage=FLASHONLY|Rotation=45.000|XOffset=0mm|YOffset=0mm|HoleType=Round|Shape=RoundedRectangle|*
%AMROUNDEDRECTD27*
21,1,0.2393,0.6961,0,0,45.0*
21,1,0.0000,0.9354,0,0,45.0*
1,1,0.2393,0.2461,-0.2461*
1,1,0.2393,0.2461,-0.2461*
1,1,0.2393,-0.2461,0.2461*
1,1,0.2393,-0.2461,0.2461*
%
%ADD27ROUNDEDRECTD27*%
G04:AMPARAMS|DCode=28|XSize=0.9354mm|YSize=0.2393mm|CornerRadius=0.1196mm|HoleSize=0mm|Usage=FLASHONLY|Rotation=45.000|XOffset=0mm|YOffset=0mm|HoleType=Round|Shape=RoundedRectangle|*
%AMROUNDEDRECTD28*
21,1,0.9354,0.0000,0,0,45.0*
21,1,0.6961,0.2393,0,0,45.0*
1,1,0.2393,0.2461,0.2461*
1,1,0.2393,-0.2461,-0.2461*
1,1,0.2393,-0.2461,-0.2461*
1,1,0.2393,0.2461,0.2461*
%
%ADD28ROUNDEDRECTD28*%
G04:AMPARAMS|DCode=29|XSize=0.9354mm|YSize=0.2393mm|CornerRadius=0mm|HoleSize=0mm|Usage=FLASHONLY|Rotation=45.000|XOffset=0mm|YOffset=0mm|HoleType=Round|Shape=Rectangle|*
%AMROTATEDRECTD29*
4,1,4,-0.2461,-0.4153,-0.4153,-0.2461,0.2461,0.4153,0.4153,0.2461,-0.2461,-0.4153,0.0*
%
%ADD29ROTATEDRECTD29*%

%ADD34R,0.2393X0.9654*%
G04:AMPARAMS|DCode=35|XSize=0.9654mm|YSize=0.2393mm|CornerRadius=0.1196mm|HoleSize=0mm|Usage=FLASHONLY|Rotation=90.000|XOffset=0mm|YOffset=0mm|HoleType=Round|Shape=RoundedRectangle|*
%AMROUNDEDRECTD35*
21,1,0.9654,0.0000,0,0,90.0*
21,1,0.7261,0.2393,0,0,90.0*
1,1,0.2393,0.0000,0.3630*
1,1,0.2393,0.0000,-0.3630*
1,1,0.2393,0.0000,-0.3630*
1,1,0.2393,0.0000,0.3630*
%
%ADD35ROUNDEDRECTD35*%
%ADD40R,2.8000X1.0000*%
%ADD41R,1.7000X0.6000*%
G04:AMPARAMS|DCode=43|XSize=0.9561mm|YSize=0.3125mm|CornerRadius=0.1562mm|HoleSize=0mm|Usage=FLASHONLY|Rotation=0.000|XOffset=0mm|YOffset=0mm|HoleType=Round|Shape=RoundedRectangle|*
%AMROUNDEDRECTD43*
21,1,0.9561,0.0000,0,0,0.0*
21,1,0.6436,0.3125,0,0,0.0*
1,1,0.3125,0.3218,0.0000*
1,1,0.3125,-0.3218,0.0000*
1,1,0.3125,-0.3218,0.0000*
1,1,0.3125,0.3218,0.0000*
%
%ADD43ROUNDEDRECTD43*%
%ADD44R,0.9561X0.3125*%
%ADD49R,0.6000X1.1500*%
%ADD50R,0.3000X1.1500*%
%ADD55R,0.8232X0.8632*%
G04:AMPARAMS|DCode=56|XSize=1.4632mm|YSize=0.7932mm|CornerRadius=0.1754mm|HoleSize=0mm|Usage=FLASHONLY|Rotation=0.000|XOffset=0mm|YOffset=0mm|HoleType=Round|Shape=RoundedRectangle|*
%AMROUNDEDRECTD56*
21,1,1.4632,0.4425,0,0,0.0*
21,1,1.1125,0.7932,0,0,0.0*
1,1,0.3507,0.5563,-0.2213*
1,1,0.3507,-0.5563,-0.2213*
1,1,0.3507,-0.5563,0.2213*
1,1,0.3507,0.5563,0.2213*
%
%ADD56ROUNDEDRECTD56*%
G04:AMPARAMS|DCode=57|XSize=0.6032mm|YSize=0.6532mm|CornerRadius=0.1616mm|HoleSize=0mm|Usage=FLASHONLY|Rotation=180.000|XOffset=0mm|YOffset=0mm|HoleType=Round|Shape=RoundedRectangle|*
%AMROUNDEDRECTD57*
21,1,0.6032,0.3300,0,0,180.0*
21,1,0.2800,0.6532,0,0,180.0*
1,1,0.3232,-0.1400,0.1650*
1,1,0.3232,0.1400,0.1650*
1,1,0.3232,0.1400,-0.1650*
1,1,0.3232,-0.1400,-0.1650*
%
%ADD57ROUNDEDRECTD57*%
G04:AMPARAMS|DCode=58|XSize=0.7032mm|YSize=0.6532mm|CornerRadius=0.1691mm|HoleSize=0mm|Usage=FLASHONLY|Rotation=180.000|XOffset=0mm|YOffset=0mm|HoleType=Round|Shape=RoundedRectangle|*
%AMROUNDEDRECTD58*
21,1,0.7032,0.3150,0,0,180.0*
21,1,0.3650,0.6532,0,0,180.0*
1,1,0.3382,-0.1825,0.1575*
1,1,0.3382,0.1825,0.1575*
1,1,0.3382,0.1825,-0.1575*
1,1,0.3382,-0.1825,-0.1575*
%
%ADD58ROUNDEDRECTD58*%
%ADD59R,0.7532X0.7532*%
%ADD60R,0.7532X0.7532*%
%ADD61P,5.2326X4X90.0*%
G04:AMPARAMS|DCode=62|XSize=1.0432mm|YSize=0.4632mm|CornerRadius=0.1341mm|HoleSize=0mm|Usage=FLASHONLY|Rotation=90.000|XOffset=0mm|YOffset=0mm|HoleType=Round|Shape=RoundedRectangle|*
%AMROUNDEDRECTD62*
21,1,1.0432,0.1950,0,0,90.0*
21,1,0.7750,0.4632,0,0,90.0*
1,1,0.2682,0.0975,0.3875*
1,1,0.2682,0.0975,-0.3875*
1,1,0.2682,-0.0975,-0.3875*
1,1,0.2682,-0.0975,0.3875*
%
%ADD62ROUNDEDRECTD62*%
G04:AMPARAMS|DCode=63|XSize=1.0432mm|YSize=0.4632mm|CornerRadius=0.1341mm|HoleSize=0mm|Usage=FLASHONLY|Rotation=180.000|XOffset=0mm|YOffset=0mm|HoleType=Round|Shape=RoundedRectangle|*
%AMROUNDEDRECTD63*
21,1,1.0432,0.1950,0,0,180.0*
21,1,0.7750,0.4632,0,0,180.0*
1,1,0.2682,-0.3875,0.0975*
1,1,0.2682,0.3875,0.0975*
1,1,0.2682,0.3875,-0.0975*
1,1,0.2682,-0.3875,-0.0975*
%
%ADD63ROUNDEDRECTD63*%
%ADD64R,1.9032X1.9032*%
%ADD65R,0.4632X1.0432*%
%ADD66R,1.0032X1.0032*%
%ADD67R,0.7000X0.6000*%
%ADD68R,0.6700X0.7100*%
G04:AMPARAMS|DCode=69|XSize=0.65mm|YSize=0.6mm|CornerRadius=0.1125mm|HoleSize=0mm|Usage=FLASHONLY|Rotation=270.000|XOffset=0mm|YOffset=0mm|HoleType=Round|Shape=RoundedRectangle|*
%AMROUNDEDRECTD69*
21,1,0.6500,0.3750,0,0,270.0*
21,1,0.4250,0.6000,0,0,270.0*
1,1,0.2250,-0.1875,-0.2125*
1,1,0.2250,-0.1875,0.2125*
1,1,0.2250,0.1875,0.2125*
1,1,0.2250,0.1875,-0.2125*
%
%ADD69ROUNDEDRECTD69*%
G04:AMPARAMS|DCode=70|XSize=2.1732mm|YSize=0.8032mm|CornerRadius=0.1766mm|HoleSize=0mm|Usage=FLASHONLY|Rotation=180.000|XOffset=0mm|YOffset=0mm|HoleType=Round|Shape=RoundedRectangle|*
%AMROUNDEDRECTD70*
21,1,2.1732,0.4500,0,0,180.0*
21,1,1.8200,0.8032,0,0,180.0*
1,1,0.3532,-0.9100,0.2250*
1,1,0.3532,0.9100,0.2250*
1,1,0.3532,0.9100,-0.2250*
1,1,0.3532,-0.9100,-0.2250*
%
%ADD70ROUNDEDRECTD70*%
G04:AMPARAMS|DCode=71|XSize=0.8232mm|YSize=0.8632mm|CornerRadius=0mm|HoleSize=0mm|Usage=FLASHONLY|Rotation=225.000|XOffset=0mm|YOffset=0mm|HoleType=Round|Shape=Rectangle|*
%AMROTATEDRECTD71*
4,1,4,-0.0141,0.5962,0.5962,-0.0141,0.0141,-0.5962,-0.5962,0.0141,-0.0141,0.5962,0.0*
%
%ADD71ROTATEDRECTD71*%

%ADD72R,1.7000X4.2500*%
G04:AMPARAMS|DCode=73|XSize=1.4432mm|YSize=0.7532mm|CornerRadius=0.1704mm|HoleSize=0mm|Usage=FLASHONLY|Rotation=90.000|XOffset=0mm|YOffset=0mm|HoleType=Round|Shape=RoundedRectangle|*
%AMROUNDEDRECTD73*
21,1,1.4432,0.4125,0,0,90.0*
21,1,1.1025,0.7532,0,0,90.0*
1,1,0.3407,0.2063,0.5513*
1,1,0.3407,0.2063,-0.5513*
1,1,0.3407,-0.2063,-0.5513*
1,1,0.3407,-0.2063,0.5513*
%
%ADD73ROUNDEDRECTD73*%
%ADD74R,1.3032X1.6032*%
%ADD75R,1.0032X1.0032*%
%ADD76R,1.2032X0.9532*%
%ADD77R,0.7032X0.8032*%
%ADD78R,0.7432X0.7832*%
%ADD79R,0.7832X0.7432*%
%ADD80R,0.7757X0.7714*%
%ADD81C,5.2032*%
%ADD82C,1.7112*%
%ADD83R,1.7112X1.7112*%
%ADD84C,0.6500*%
G04:AMPARAMS|DCode=85|XSize=1mm|YSize=2.1mm|CornerRadius=0.5mm|HoleSize=0mm|Usage=FLASHONLY|Rotation=180.000|XOffset=0mm|YOffset=0mm|HoleType=Round|Shape=RoundedRectangle|*
%AMROUNDEDRECTD85*
21,1,1.0000,1.1000,0,0,180.0*
21,1,0.0000,2.1000,0,0,180.0*
1,1,1.0000,0.0000,0.5500*
1,1,1.0000,0.0000,0.5500*
1,1,1.0000,0.0000,-0.5500*
1,1,1.0000,0.0000,-0.5500*
%
%ADD85ROUNDEDRECTD85*%
G04:AMPARAMS|DCode=86|XSize=1mm|YSize=1.8mm|CornerRadius=0.5mm|HoleSize=0mm|Usage=FLASHONLY|Rotation=180.000|XOffset=0mm|YOffset=0mm|HoleType=Round|Shape=RoundedRectangle|*
%AMROUNDEDRECTD86*
21,1,1.0000,0.8000,0,0,180.0*
21,1,0.0000,1.8000,0,0,180.0*
1,1,1.0000,0.0000,0.4000*
1,1,1.0000,0.0000,0.4000*
1,1,1.0000,0.0000,-0.4000*
1,1,1.0000,0.0000,-0.4000*
%
%ADD86ROUNDEDRECTD86*%
%ADD87C,0.8032*%
D27*
X127656Y-107955D02*
D03*
X131192Y-104420D02*
D03*
X134728Y-100884D02*
D03*
X138263Y-97349D02*
D03*
X141799Y-93813D02*
D03*
X145334Y-90278D02*
D03*
X148870Y-86742D02*
D03*
X152405Y-83207D02*
D03*
X187304Y-118105D02*
D03*
X183768Y-121640D02*
D03*
X180232Y-125176D02*
D03*
X176697Y-128711D02*
D03*
X173161Y-132247D02*
D03*
X169626Y-135782D02*
D03*
X166090Y-139318D02*
D03*
X162555Y-142853D02*
D03*
D28*
Y-83207D02*
D03*
X166090Y-86742D02*
D03*
X169626Y-90278D02*
D03*
X173161Y-93813D02*
D03*
X176697Y-97349D02*
D03*
X180232Y-100884D02*
D03*
X183768Y-104420D02*
D03*
X187304Y-107955D02*
D03*
X152405Y-142853D02*
D03*
X148870Y-139318D02*
D03*
X145334Y-135782D02*
D03*
X141799Y-132247D02*
D03*
X138263Y-128711D02*
D03*
X134728Y-125176D02*
D03*
X131192Y-121640D02*
D03*
D29*
X127656Y-118105D02*
D03*
D34*
X211410Y-61646D02*
D03*
D35*
X216410D02*
D03*
X221410D02*
D03*
Y-47574D02*
D03*
X216410D02*
D03*
X211410D02*
D03*
D40*
X-16250Y-118630D02*
D03*
Y-193130D02*
D03*
D41*
X17250Y-137130D02*
D03*
Y-149630D02*
D03*
Y-162130D02*
D03*
Y-174630D02*
D03*
D43*
X125270Y-198940D02*
D03*
Y-205440D02*
D03*
Y-211940D02*
D03*
Y-218440D02*
D03*
Y-224940D02*
D03*
Y-231440D02*
D03*
Y-237940D02*
D03*
X95710D02*
D03*
Y-231440D02*
D03*
Y-224940D02*
D03*
Y-218440D02*
D03*
Y-211940D02*
D03*
Y-205440D02*
D03*
D44*
Y-198940D02*
D03*
D49*
X187000Y-25900D02*
D03*
X251000D02*
D03*
X195000D02*
D03*
X243000D02*
D03*
D50*
X201500D02*
D03*
X206500D02*
D03*
X211500D02*
D03*
X216500D02*
D03*
X221500D02*
D03*
X226500D02*
D03*
X231500D02*
D03*
X236500D02*
D03*
D55*
X241300Y-136380D02*
D03*
Y-127780D02*
D03*
D56*
X44090Y-114300D02*
D03*
X24490Y-123800D02*
D03*
Y-104800D02*
D03*
D57*
X19240Y-202530D02*
D03*
X11240D02*
D03*
D58*
X15240Y-214030D02*
D03*
D59*
X216500Y-106000D02*
D03*
X207500D02*
D03*
X266500Y-128000D02*
D03*
X275500D02*
D03*
X249500Y-136000D02*
D03*
X258500D02*
D03*
X258500Y-145000D02*
D03*
X249500D02*
D03*
X239850Y-48260D02*
D03*
X248850D02*
D03*
X194240D02*
D03*
X185240D02*
D03*
D60*
X232000Y-111500D02*
D03*
Y-120500D02*
D03*
X284905Y-106085D02*
D03*
Y-115085D02*
D03*
X232000Y-90500D02*
D03*
Y-99500D02*
D03*
X282000Y-88500D02*
D03*
Y-79500D02*
D03*
X267320Y-172330D02*
D03*
Y-163330D02*
D03*
X238110Y-172330D02*
D03*
Y-163330D02*
D03*
X208900Y-172330D02*
D03*
Y-163330D02*
D03*
D61*
X157480Y-113030D02*
D03*
D62*
X251500Y-87252D02*
D03*
X256500D02*
D03*
X261500D02*
D03*
X266500D02*
D03*
Y-118748D02*
D03*
X261500D02*
D03*
X256500D02*
D03*
D63*
X243252Y-110500D02*
D03*
Y-105500D02*
D03*
Y-100500D02*
D03*
Y-95500D02*
D03*
X274748D02*
D03*
Y-100500D02*
D03*
Y-105500D02*
D03*
Y-110500D02*
D03*
D64*
X259000Y-103000D02*
D03*
D65*
X251500Y-118748D02*
D03*
D66*
X257160Y-164140D02*
D03*
Y-179140D02*
D03*
X227950D02*
D03*
Y-164140D02*
D03*
X198740Y-179140D02*
D03*
Y-164140D02*
D03*
D67*
X199390Y-205570D02*
D03*
Y-216070D02*
D03*
X242570Y-233850D02*
D03*
Y-223350D02*
D03*
D68*
X189230Y-215120D02*
D03*
Y-206520D02*
D03*
X251460Y-224790D02*
D03*
Y-233390D02*
D03*
X177800Y-215120D02*
D03*
Y-206520D02*
D03*
D69*
X198120Y-236220D02*
D03*
X189120D02*
D03*
D70*
X100963Y-174485D02*
D03*
Y-161785D02*
D03*
Y-149085D02*
D03*
Y-136385D02*
D03*
X51563D02*
D03*
Y-149085D02*
D03*
Y-161785D02*
D03*
Y-174485D02*
D03*
D71*
X130041Y-79241D02*
D03*
X123959Y-73159D02*
D03*
X123691Y-85591D02*
D03*
X117609Y-79509D02*
D03*
X174759Y-154439D02*
D03*
X180841Y-160521D02*
D03*
D72*
X110490Y-218440D02*
D03*
D73*
X211480Y-207860D02*
D03*
X230480D02*
D03*
Y-231560D02*
D03*
X220980D02*
D03*
X211480D02*
D03*
D74*
X52450Y-206170D02*
D03*
Y-228170D02*
D03*
X36450D02*
D03*
Y-206170D02*
D03*
D75*
X47110Y-1030D02*
D03*
X62110D02*
D03*
X77110D02*
D03*
X69610Y13970D02*
D03*
X54610D02*
D03*
D76*
X102172Y-2668D02*
D03*
Y18668D02*
D03*
X143828D02*
D03*
Y-2668D02*
D03*
D77*
X249600Y-39370D02*
D03*
X239100D02*
D03*
X184490D02*
D03*
X194990D02*
D03*
D78*
X118110Y-166460D02*
D03*
Y-158660D02*
D03*
X66040Y-223430D02*
D03*
Y-231230D02*
D03*
Y-208370D02*
D03*
Y-200570D02*
D03*
D79*
X118020Y-189230D02*
D03*
X125820D02*
D03*
D80*
X33020Y-151046D02*
D03*
Y-160089D02*
D03*
D81*
X320000Y-230000D02*
D03*
X0Y0D02*
D03*
D82*
X328250Y-155000D02*
D03*
Y-80000D02*
D03*
Y-130000D02*
D03*
Y-105000D02*
D03*
D83*
Y-55000D02*
D03*
D84*
X190100Y-15150D02*
D03*
X247900D02*
D03*
D85*
X175800Y-20150D02*
D03*
X262200D02*
D03*
D86*
X175800Y21650D02*
D03*
X262200D02*
D03*
D87*
X339500Y-230000D02*
D03*
X333789Y-216211D02*
D03*
X320000Y-210500D02*
D03*
X306211Y-216211D02*
D03*
X300500Y-230000D02*
D03*
X306211Y-243789D02*
D03*
X320000Y-249500D02*
D03*
X333789Y-243789D02*
D03*
X13789Y-13789D02*
D03*
X-13789D02*
D03*
Y13789D02*
D03*
X13789D02*
D03*
X0Y-19500D02*
D03*
X-19500Y0D02*
D03*
X0Y19500D02*
D03*
X19500Y0D02*
D03*
X259000Y-103000D02*
D03*
X139700Y-113030D02*
D03*
X157480Y-130810D02*
D03*
Y-113030D02*
D03*
X175260D02*
D03*
X157480Y-95250D02*
D03*
M02*
